<?xml version="1.0" encoding="UTF-8"?>
<svg version="1.1" xmlns="http://www.w3.org/2000/svg" width="512" height="138">
<path d="M0 0 C168.96 0 337.92 0 512 0 C512 45.54 512 91.08 512 138 C343.04 138 174.08 138 0 138 C0 92.46 0 46.92 0 0 Z " fill="#FCFCFC" transform="translate(0,0)"/>
<path d="M0 0 C15 0 15 0 18.44140625 2.5625 C19.5703125 4.2175293 19.5703125 4.2175293 20.5625 6 C21.14451172 6.88715698 21.14451172 6.88715698 21.73828125 7.79223633 C22.50720075 8.96660067 23.25693563 10.15379971 23.98486328 11.35400391 C25.35346312 13.57312371 26.90928993 15.62377302 28.5 17.6875 C28.9434375 18.28949219 29.386875 18.89148438 29.84375 19.51171875 C31.0671036 21.15015418 31.0671036 21.15015418 33 23 C33 23.99 33 24.98 33 26 C35.9804372 23.20745993 38.13438831 20.4241513 40.25 16.9375 C40.86617187 15.98101562 41.48234375 15.02453125 42.1171875 14.0390625 C44.03928451 11.02503729 44.03928451 11.02503729 45.6328125 7.8359375 C47.375 4.8125 47.375 4.8125 52 0 C57.61 0 63.22 0 69 0 C69 14.19 69 28.38 69 43 C65.37 43 61.74 43 58 43 C57.67 33.1 57.34 23.2 57 13 C55.14375 15.454375 53.2875 17.90875 51.375 20.4375 C50.76978516 21.23148193 50.16457031 22.02546387 49.54101562 22.84350586 C46.68891662 26.61478878 44.16451418 30.35358333 41.875 34.5 C40.31030889 36.83563221 39.34714724 37.83168619 36.80859375 39.0625 C33.53187655 39.63682289 32.03394423 39.4254307 29 38 C25.7007748 34.81128061 23.22882187 30.98927342 20.73828125 27.16015625 C17.73792273 22.60183696 14.35036264 18.30760911 11 14 C10.67 23.57 10.34 33.14 10 43 C6.7 43 3.4 43 0 43 C0 28.81 0 14.62 0 0 Z " fill="#475864" transform="translate(181,26)"/>
<path d="M0 0 C1.03330948 0.00990463 2.06661896 0.01980927 3.13124084 0.03001404 C6.41319133 0.06902223 9.69172668 0.15682167 12.97265625 0.24609375 C15.20502963 0.28122502 17.43745573 0.31316083 19.66992188 0.34179688 C25.12615398 0.41873847 30.58041112 0.53568908 36.03515625 0.68359375 C36.03515625 1.34359375 36.03515625 2.00359375 36.03515625 2.68359375 C34.59665595 3.88791958 33.15415583 5.08793879 31.6875 6.2578125 C29.12195763 8.47157838 27.16481779 11.04953869 25.03515625 13.68359375 C22.84765625 16.05859375 22.84765625 16.05859375 21.03515625 17.68359375 C20.37515625 17.68359375 19.71515625 17.68359375 19.03515625 17.68359375 C19.03515625 18.34359375 19.03515625 19.00359375 19.03515625 19.68359375 C17.35546875 21.41015625 17.35546875 21.41015625 15.16015625 23.30859375 C14.44085938 23.94023438 13.7215625 24.571875 12.98046875 25.22265625 C11.03515625 26.68359375 11.03515625 26.68359375 9.03515625 26.68359375 C8.04515625 29.15859375 8.04515625 29.15859375 7.03515625 31.68359375 C16.60515625 32.01359375 26.17515625 32.34359375 36.03515625 32.68359375 C34.05515625 34.99359375 32.07515625 37.30359375 30.03515625 39.68359375 C29.47602539 40.47991211 28.91689453 41.27623047 28.34082031 42.09667969 C24.35363585 44.8409299 19.85167616 44.16863245 15.14453125 44.07421875 C13.5549057 44.06572906 13.5549057 44.06572906 11.9331665 44.05706787 C8.55003597 44.03468615 5.16796641 43.98448473 1.78515625 43.93359375 C-0.50909928 43.91353115 -2.80337142 43.89527996 -5.09765625 43.87890625 C-10.72041378 43.83481555 -16.34255296 43.76788511 -21.96484375 43.68359375 C-18.79370062 39.93651355 -15.63020901 36.22280323 -12.16015625 32.74609375 C-11.49371094 32.07835938 -10.82726562 31.410625 -10.140625 30.72265625 C-9.46386719 30.04976562 -8.78710938 29.376875 -8.08984375 28.68359375 C-7.42082031 28.01070312 -6.75179687 27.3378125 -6.0625 26.64453125 C-2.02868158 22.61848512 2.11505621 18.80247249 6.47314453 15.12890625 C8.15008033 13.74772551 8.15008033 13.74772551 9.03515625 11.68359375 C-0.20484375 11.68359375 -9.44484375 11.68359375 -18.96484375 11.68359375 C-16.42852519 1.53831951 -9.5511225 -0.34787685 0 0 Z " fill="#465764" transform="translate(137.96484375,25.31640625)"/>
<path d="M0 0 C0 14.19 0 28.38 0 43 C-9.9 43 -19.8 43 -30 43 C-30 39.37 -30 35.74 -30 32 C-23.73 32 -17.46 32 -11 32 C-11 25.4 -11 18.8 -11 12 C-11.66 12 -12.32 12 -13 12 C-13.26627197 12.59748047 -13.53254395 13.19496094 -13.80688477 13.81054688 C-15.03032904 16.055656 -16.19401699 17.33863714 -18.08984375 19.03125 C-18.70456543 19.58917236 -19.31928711 20.14709473 -19.95263672 20.72192383 C-20.6076416 21.30868896 -21.26264648 21.8954541 -21.9375 22.5 C-28.7068582 28.67571243 -34.92423075 35.14374656 -41 42 C-42 43 -42 43 -45.81640625 43.09765625 C-47.39846682 43.09098089 -48.98051159 43.07901875 -50.5625 43.0625 C-51.36880859 43.05798828 -52.17511719 43.05347656 -53.00585938 43.04882812 C-55.00393756 43.03700518 -57.00197783 43.01906914 -59 43 C-54.70664091 37.863895 -50.20045012 33.07584546 -45.4375 28.375 C-44.79103516 27.73304687 -44.14457031 27.09109375 -43.47851562 26.4296875 C-40.82517201 23.7952385 -38.16948274 21.16473828 -35.48828125 18.55859375 C-33.42181864 16.43373816 -31.52181315 14.27151544 -29.609375 12.01171875 C-28.32386267 10.56946875 -27.03738244 9.12808095 -25.75 7.6875 C-25.151875 6.94693359 -24.55375 6.20636719 -23.9375 5.44335938 C-16.38068302 -2.75578705 -12.92545436 0 0 0 Z " fill="#475763" transform="translate(398,26)"/>
<path d="M0 0 C5.61 0 11.22 0 17 0 C17 14.19 17 28.38 17 43 C7.1 43 -2.8 43 -13 43 C-13 39.37 -13 35.74 -13 32 C-6.73 32 -0.46 32 6 32 C5.505 23.09 5.505 23.09 5 14 C-1.50240095 19.09647642 -7.54207524 24.34837824 -13.375 30.1875 C-13.95717285 30.76902832 -14.5393457 31.35055664 -15.13916016 31.94970703 C-17.81552811 34.65996281 -20.20515502 37.28451749 -22.39453125 40.40234375 C-25.11343177 43.11309164 -25.43261065 43.38725284 -28.98828125 43.5859375 C-30.43086011 43.54641479 -31.87287302 43.47534933 -33.3125 43.375 C-34.05306641 43.34792969 -34.79363281 43.32085937 -35.55664062 43.29296875 C-37.37235998 43.22268284 -39.18656801 43.11507089 -41 43 C-40.21654285 41.82780457 -39.42297164 40.66236332 -38.625 39.5 C-37.96371094 38.52546875 -37.96371094 38.52546875 -37.2890625 37.53125 C-36.86367188 37.0259375 -36.43828125 36.520625 -36 36 C-35.34 36 -34.68 36 -34 36 C-34 35.34 -34 34.68 -34 34 C-32.125 31.875 -32.125 31.875 -30 30 C-29.34 30 -28.68 30 -28 30 C-28 29.34 -28 28.68 -28 28 C-27.34 28 -26.68 28 -26 28 C-25.67 27.01 -25.34 26.02 -25 25 C-24.34 25 -23.68 25 -23 25 C-22.773125 24.4225 -22.54625 23.845 -22.3125 23.25 C-20.67083893 20.43572387 -18.56440947 18.97262267 -16 17 C-15.67 16.34 -15.34 15.68 -15 15 C-14.34 15 -13.68 15 -13 15 C-12.67 14.01 -12.34 13.02 -12 12 C-9.5625 9.3125 -9.5625 9.3125 -7 7 C-6.34 7 -5.68 7 -5 7 C-4.731875 6.360625 -4.46375 5.72125 -4.1875 5.0625 C-3 3 -3 3 0 2 C0 1.34 0 0.68 0 0 Z " fill="#4A5966" transform="translate(58,26)"/>
<path d="M0 0 C22.11 0 44.22 0 67 0 C66.34 1.32 65.68 2.64 65 4 C64.69819824 4.62914307 64.39639648 5.25828613 64.08544922 5.90649414 C62.58345854 8.26671988 61.39402647 9.50712977 59 11 C53.35447638 11.88601005 47.81863235 11.65947747 42.125 11.4375 C40.56256953 11.40235827 39.00006341 11.37042424 37.4375 11.34179688 C33.62161102 11.27090722 29.81626568 11.13401602 26 11 C26 21.56 26 32.12 26 43 C22.7 43 19.4 43 16 43 C16 32.44 16 21.88 16 11 C10.72 11 5.44 11 0 11 C0 7.37 0 3.74 0 0 Z " fill="#455762" transform="translate(305,26)"/>
<path d="M0 0 C0.66 1.32 1.32 2.64 2 4 C1.01 4.33 0.02 4.66 -1 5 C-0.01 5.99 0.98 6.98 2 8 C1.46890625 8.51949219 0.9378125 9.03898437 0.390625 9.57421875 C-4.00268737 13.88924943 -4.00268737 13.88924943 -8 18.5625 C-9.72055205 20.65942281 -11.32224294 22.19655414 -13.375 23.9375 C-19.96243915 29.54809456 -25.92475578 35.84796196 -32 42 C-32.99 41.67 -33.98 41.34 -35 41 C-35.33 41.99 -35.66 42.98 -36 44 C-37.65 43.67 -39.3 43.34 -41 43 C-41 32.44 -41 21.88 -41 11 C-30.11 11 -19.22 11 -8 11 C-7.34 9.68 -6.68 8.36 -6 7 C-4.99564028 5.71983165 -3.95309739 4.46871878 -2.875 3.25 C-2.33617187 2.63640625 -1.79734375 2.0228125 -1.2421875 1.390625 C-0.83226562 0.93171875 -0.42234375 0.4728125 0 0 Z " fill="#F8FAFB" transform="translate(372,26)"/>
<path d="M0 0 C3.63 0 7.26 0 11 0 C11 10.56 11 21.12 11 32 C20.57 32 30.14 32 40 32 C40 35.63 40 39.26 40 43 C26.8 43 13.6 43 0 43 C0 28.81 0 14.62 0 0 Z " fill="#475864" transform="translate(447,26)"/>
<path d="M0 0 C3.63 0 7.26 0 11 0 C11 10.56 11 21.12 11 32 C20.24 32 29.48 32 39 32 C39 35.63 39 39.26 39 43 C26.13 43 13.26 43 0 43 C0 28.81 0 14.62 0 0 Z " fill="#445461" transform="translate(403,26)"/>
<path d="M0 0 C3.63 0 7.26 0 11 0 C11 10.56 11 21.12 11 32 C19.91 32 28.82 32 38 32 C36.03747385 35.92505231 34.09664503 37.98275613 31 41 C30.67 41.66 30.34 42.32 30 43 C20.1 43 10.2 43 0 43 C0 28.81 0 14.62 0 0 Z " fill="#445461" transform="translate(80,26)"/>
<path d="M0 0 C14.19 0 28.38 0 43 0 C43 3.63 43 7.26 43 11 C28.81 11 14.62 11 0 11 C0 7.37 0 3.74 0 0 Z " fill="#435560" transform="translate(256,58)"/>
<path d="M0 0 C14.19 0 28.38 0 43 0 C43 3.63 43 7.26 43 11 C28.81 11 14.62 11 0 11 C0 7.37 0 3.74 0 0 Z " fill="#51626D" transform="translate(256,42)"/>
<path d="M0 0 C14.19 0 28.38 0 43 0 C43 3.63 43 7.26 43 11 C28.81 11 14.62 11 0 11 C0 7.37 0 3.74 0 0 Z " fill="#415462" transform="translate(256,26)"/>
<path d="M0 0 C10.546875 -0.48828125 10.546875 -0.48828125 14 0 C17.03906516 2.8871119 17.90398514 4.32789601 18.5 8.5 C17.9231981 12.53761333 16.85349783 14.14650217 14 17 C11.26094655 18.36952673 9.02912668 18.12621361 6 18 C5.34 17.67 4.68 17.34 4 17 C4 19.64 4 22.28 4 25 C2.68 25 1.36 25 0 25 C0 16.75 0 8.5 0 0 Z " fill="#1D1D1D" transform="translate(221,93)"/>
<path d="M0 0 C1.32 0 2.64 0 4 0 C4 7.92 4 15.84 4 24 C2.1025 24.226875 0.205 24.45375 -1.75 24.6875 C-2.81734375 24.81511719 -3.8846875 24.94273438 -4.984375 25.07421875 C-8.44982887 24.98892908 -9.60167333 24.44875877 -12 22 C-13.57263834 17.28208498 -13.77539961 13.58451224 -11.5625 9.0625 C-7.85142217 6.07553492 -4.59138561 6.55852061 0 7 C0 4.69 0 2.38 0 0 Z " fill="#0C0C0C" transform="translate(307,86)"/>
<path d="M0 0 C0.99 0 1.98 0 3 0 C3 7.92 3 15.84 3 24 C-8 25 -8 25 -11.125 23.6875 C-13.23540092 21.78813918 -13.90737539 20.78654997 -14.23828125 17.9765625 C-14.35471395 14.28748419 -14.39351073 11.7333609 -12.625 8.4375 C-8.55710116 6.20984111 -4.53831648 6.68820726 0 7 C0 4.69 0 2.38 0 0 Z " fill="#161616" transform="translate(106,86)"/>
<path d="M0 0 C1.875 0.1875 1.875 0.1875 4 1 C5.25 3.5625 5.25 3.5625 6 6 C7.32 5.34 8.64 4.68 10 4 C10 14.56 10 25.12 10 36 C7.03 36 4.06 36 1 36 C0.97531143 31.4793335 0.95714551 26.9587061 0.94506836 22.43798828 C0.94003448 20.89956987 0.93320692 19.36115625 0.92456055 17.82275391 C0.91245361 15.61359474 0.90676231 13.40449874 0.90234375 11.1953125 C0.89718246 10.50567413 0.89202118 9.81603577 0.88670349 9.10549927 C0.88612829 4.22774341 0.88612829 4.22774341 2 2 C1.34 2 0.68 2 0 2 C0 1.34 0 0.68 0 0 Z " fill="#43545F" transform="translate(320,33)"/>
<path d="M0 0 C2.421875 0.47265625 2.421875 0.47265625 5.609375 2.41015625 C7.80370748 6.11782147 7.93341968 8.20094107 7.1953125 12.37890625 C6.421875 14.47265625 6.421875 14.47265625 3.734375 17.03515625 C0.14313387 18.59361938 -1.73262323 19.20902893 -5.578125 18.47265625 C-9.14532305 15.46035568 -11.36946949 13.35055586 -11.890625 8.66015625 C-11.578125 5.47265625 -11.578125 5.47265625 -10.203125 2.59765625 C-6.7445152 -0.20217073 -4.36104814 -0.25159893 0 0 Z " fill="#111111" transform="translate(277.578125,92.52734375)"/>
<path d="M0 0 C1.32 0 2.64 0 4 0 C4.99 2.97 5.98 5.94 7 9 C8.99097846 6.01353231 9.94124926 3.40312738 11 0 C12.65 0.33 14.3 0.66 16 1 C16.99 4.3 17.98 7.6 19 11 C19.66 7.37 20.32 3.74 21 0 C22.32 0 23.64 0 25 0 C23.76123355 5.69305433 22.43723997 11.35370013 21 17 C19.68 17 18.36 17 17 17 C16.49384702 15.73160474 15.99530901 14.46016898 15.5 13.1875 C15.2215625 12.47980469 14.943125 11.77210937 14.65625 11.04296875 C14 9 14 9 14 6 C13.34 6 12.68 6 12 6 C11.7834375 7.60875 11.7834375 7.60875 11.5625 9.25 C11.16250558 11.91662949 10.72408076 14.41399729 10 17 C8.35 17 6.7 17 5 17 C4.16080602 14.73117913 3.32848276 12.46022973 2.5 10.1875 C2.26152344 9.54490234 2.02304687 8.90230469 1.77734375 8.24023438 C0.72931254 5.35066261 0 3.09923939 0 0 Z " fill="#141414" transform="translate(16,93)"/>
<path d="M0 0 C0.91007812 0.00902344 1.82015625 0.01804687 2.7578125 0.02734375 C3.45648438 0.03894531 4.15515625 0.05054687 4.875 0.0625 C5.205 1.0525 5.535 2.0425 5.875 3.0625 C6.535 3.0625 7.195 3.0625 7.875 3.0625 C7.875 5.0425 7.875 7.0225 7.875 9.0625 C3.585 9.0625 -0.705 9.0625 -5.125 9.0625 C-4.135 10.7125 -3.145 12.3625 -2.125 14.0625 C0.14831799 14.66419446 0.14831799 14.66419446 2.5625 14.375 C3.37074219 14.32988281 4.17898437 14.28476563 5.01171875 14.23828125 C5.93404297 14.15126953 5.93404297 14.15126953 6.875 14.0625 C6.875 15.0525 6.875 16.0425 6.875 17.0625 C3.67326746 18.66336627 0.34922941 18.56167089 -3.125 18.0625 C-5.9350346 16.26886089 -7.63440468 15.04369065 -9.125 12.0625 C-9.54214286 4.55392857 -9.54214286 4.55392857 -7.125 1.0625 C-4.60024538 -0.19987731 -2.81299534 -0.03606404 0 0 Z " fill="#090909" transform="translate(59.125,92.9375)"/>
<path d="M0 0 C1.299375 0.02900391 1.299375 0.02900391 2.625 0.05859375 C3.49125 0.05988281 4.3575 0.06117187 5.25 0.0625 C7.625 0.49609375 7.625 0.49609375 9.4375 1.6484375 C10.625 3.49609375 10.625 3.49609375 10.625 9.49609375 C6.665 9.49609375 2.705 9.49609375 -1.375 9.49609375 C-1.045 10.81609375 -0.715 12.13609375 -0.375 13.49609375 C3.06015002 14.12066648 6.11564814 14.49609375 9.625 14.49609375 C9.625 15.48609375 9.625 16.47609375 9.625 17.49609375 C6.43266515 19.09226118 3.09038503 19.01075489 -0.375 18.49609375 C-2.80619623 16.62594281 -4.01569173 15.2147103 -5.375 12.49609375 C-5.83599158 5.35072425 -5.83599158 5.35072425 -4.171875 2.265625 C-2.375 0.49609375 -2.375 0.49609375 0 0 Z " fill="#131313" transform="translate(184.375,92.50390625)"/>
<path d="M0 0 C1.32 0 2.64 0 4 0 C4.99 3.63 5.98 7.26 7 11 C7.639375 9.55625 8.27875 8.1125 8.9375 6.625 C9.92496004 4.39525153 10.90942 2.18116 12 0 C13.32 0 14.64 0 16 0 C14.39704535 5.00823643 12.53081878 9.87726179 10.5625 14.75 C10.26279297 15.51699219 9.96308594 16.28398438 9.65429688 17.07421875 C9.35716797 17.80769531 9.06003906 18.54117188 8.75390625 19.296875 C8.48908447 19.96041992 8.2242627 20.62396484 7.95141602 21.30761719 C7 23 7 23 4 25 C1.3125 25.125 1.3125 25.125 -1 25 C-1 24.01 -1 23.02 -1 22 C0.65 22 2.3 22 4 22 C4.5478839 15.97327707 2.93965963 11.32101314 0.875 5.671875 C0 3 0 3 0 0 Z " fill="#0F0F0F" transform="translate(471,93)"/>
<path d="M0 0 C1.32 0 2.64 0 4 0 C4.33 4.29 4.66 8.58 5 13 C8.74691447 14.39770584 8.74691447 14.39770584 11 13 C11.46954261 9.95418731 11.46954261 9.95418731 11.625 6.4375 C11.69976562 5.23996094 11.77453125 4.04242188 11.8515625 2.80859375 C11.90054687 1.88175781 11.94953125 0.95492187 12 0 C12.99 0 13.98 0 15 0 C15 5.61 15 11.22 15 17 C4.49795082 18.35908872 4.49795082 18.35908872 2.20703125 16.70703125 C-0.27740339 13.19344569 -0.10716234 9.96609723 -0.0625 5.8125 C-0.05347656 4.72582031 -0.04445313 3.63914062 -0.03515625 2.51953125 C-0.02355469 1.68808594 -0.01195312 0.85664062 0 0 Z " fill="#131313" transform="translate(323,93)"/>
<path d="M0 0 C14.19 0 28.38 0 43 0 C43 3.63 43 7.26 43 11 C42.67 11 42.34 11 42 11 C42 8.36 42 5.72 42 3 C28.14 3 14.28 3 0 3 C0 2.01 0 1.02 0 0 Z " fill="#58656D" transform="translate(256,26)"/>
<path d="M0 0 C0.66 0 1.32 0 2 0 C2 2.64 2 5.28 2 8 C-11.86 8 -25.72 8 -40 8 C-40 7.01 -40 6.02 -40 5 C-27.13 4.67 -14.26 4.34 -1 4 C-0.67 2.68 -0.34 1.36 0 0 Z " fill="#44525D" transform="translate(296,61)"/>
<path d="M0 0 C1.52491998 3.04983996 1.23562548 5.6423369 1 9 C-0.1875 10.9375 -0.1875 10.9375 -2 12 C-4.5 12.4375 -4.5 12.4375 -7 12 C-9.5348994 9.72733157 -9.96041822 8.32325124 -10.375 4.9375 C-10 2 -10 2 -8.9375 0.0625 C-5.81857551 -1.64787795 -3.34442199 -0.80513863 0 0 Z " fill="#F4F4F4" transform="translate(280,96)"/>
<path d="M0 0 C1.32 0 2.64 0 4 0 C5.32 3.63 6.64 7.26 8 11 C9.65 7.37 11.3 3.74 13 0 C13.99 0 14.98 0 16 0 C15.34496718 4.05819183 14.05440879 7.53971282 12.4375 11.3125 C11.98246094 12.38113281 11.52742187 13.44976562 11.05859375 14.55078125 C10.70925781 15.35902344 10.35992187 16.16726562 10 17 C8.68 17 7.36 17 6 17 C4.9932996 14.73192796 3.99448234 12.46092246 3 10.1875 C2.71382812 9.54490234 2.42765625 8.90230469 2.1328125 8.24023438 C0.86288959 5.32243531 0 3.21734286 0 0 Z " fill="#161616" transform="translate(154,93)"/>
<path d="M0 0 C1.65 0 3.3 0 5 0 C5.50559908 1.43554025 6.0042749 2.8735202 6.5 4.3125 C6.7784375 5.11300781 7.056875 5.91351563 7.34375 6.73828125 C8 9 8 9 8 12 C8.66 12 9.32 12 10 12 C10.103125 11.13375 10.20625 10.2675 10.3125 9.375 C11.03398414 5.83316877 12.27123261 3.15687958 14 0 C14.99 0 15.98 0 17 0 C16.34496718 4.05819183 15.05440879 7.53971282 13.4375 11.3125 C12.98246094 12.38113281 12.52742188 13.44976562 12.05859375 14.55078125 C11.70925781 15.35902344 11.35992187 16.16726562 11 17 C9.35 17 7.7 17 6 17 C4.02 11.39 2.04 5.78 0 0 Z " fill="#151515" transform="translate(408,93)"/>
<path d="M0 0 C1.32 0 2.64 0 4 0 C4 1.32 4 2.64 4 4 C5.65 4 7.3 4 9 4 C9 4.66 9 5.32 9 6 C7.35 6 5.7 6 4 6 C4 10.29 4 14.58 4 19 C5.98 19 7.96 19 10 19 C10 19.66 10 20.32 10 21 C7.21136993 22.39431504 5.07921132 22.25660094 2 22 C-0.42130331 18.36804504 -0.21022785 16.61650652 -0.125 12.3125 C-0.09792969 10.54326172 -0.09792969 10.54326172 -0.0703125 8.73828125 C-0.03550781 7.38283203 -0.03550781 7.38283203 0 6 C-0.99 6 -1.98 6 -3 6 C-3 5.34 -3 4.68 -3 4 C-2.01 4 -1.02 4 0 4 C0 2.68 0 1.36 0 0 Z " fill="#151515" transform="translate(375,89)"/>
<path d="M0 0 C2.42522207 2.42522207 2.29629254 3.1720679 2.3125 6.5 C2.33763672 7.69109375 2.33763672 7.69109375 2.36328125 8.90625 C2.24339844 9.5971875 2.12351562 10.288125 2 11 C-1 13 -1 13 -4.125 12.75 C-5.548125 12.37875 -5.548125 12.37875 -7 12 C-8.10647808 9.78704384 -8.19588368 8.45327301 -8.25 6 C-8.27578125 5.29875 -8.3015625 4.5975 -8.328125 3.875 C-8.21984375 3.25625 -8.1115625 2.6375 -8 2 C-4.77626323 -0.14915785 -3.73296326 -0.38286803 0 0 Z " fill="#EEEEEE" transform="translate(104,95)"/>
<path d="M0 0 C1.8125 1.125 1.8125 1.125 3 3 C3.45185216 6.53950857 3.42109443 8.33326715 1.5 11.375 C1.005 11.91125 0.51 12.4475 0 13 C-2.31 12.67 -4.62 12.34 -7 12 C-7 8.37 -7 4.74 -7 1 C-4.45132831 -0.27433584 -2.82594567 -0.27570202 0 0 Z " fill="#EFEFEF" transform="translate(232,95)"/>
<path d="M0 0 C0 0.66 0 1.32 0 2 C0.99 2 1.98 2 3 2 C3 2.66 3 3.32 3 4 C-9.54 4 -22.08 4 -35 4 C-35 3.01 -35 2.02 -35 1 C-30.33692578 0.85719857 -25.67383973 0.7147919 -21.01074219 0.57275391 C-19.42382479 0.5243604 -17.83691071 0.47585828 -16.25 0.42724609 C-13.97136275 0.35746283 -11.69271395 0.28806785 -9.4140625 0.21875 C-8.70255035 0.19687622 -7.99103821 0.17500244 -7.25796509 0.15246582 C-2.22774341 0 -2.22774341 0 0 0 Z " fill="#44525D" transform="translate(483,65)"/>
<path d="M0 0 C0 0.99 0 1.98 0 3 C-1.8871875 2.9071875 -1.8871875 2.9071875 -3.8125 2.8125 C-6.39469981 2.83081347 -7.74451965 2.86838891 -10.0625 4.0625 C-11.56668055 7.17113981 -10.72765436 9.72555538 -10 13 C-8.99163938 14.23267348 -8.99163938 14.23267348 -6.93359375 14.09765625 C-6.10988281 14.08605469 -5.28617187 14.07445313 -4.4375 14.0625 C-3.61121094 14.05347656 -2.78492188 14.04445313 -1.93359375 14.03515625 C-1.29550781 14.02355469 -0.65742188 14.01195313 0 14 C0 14.99 0 15.98 0 17 C-3.63782632 18.21260877 -6.17735999 18.39544552 -10 18 C-12.9375 16.0625 -12.9375 16.0625 -15 13 C-15.86269262 8.74707674 -15.67173925 5.31149092 -13.6875 1.4375 C-9.33926401 -0.88830065 -4.82751646 -0.29963895 0 0 Z " fill="#1F1F1F" transform="translate(365,93)"/>
<path d="M0 0 C0.928125 0.20625 1.85625 0.4125 2.8125 0.625 C2.8125 4.255 2.8125 7.885 2.8125 11.625 C0.5025 11.955 -1.8075 12.285 -4.1875 12.625 C-6.91036806 8.54069792 -6.57274534 6.47909123 -6.1875 1.625 C-3.1875 -0.375 -3.1875 -0.375 0 0 Z " fill="#F1F1F1" transform="translate(304.1875,95.375)"/>
<path d="M0 0 C0.99 0 1.98 0 3 0 C3 1.32 3 2.64 3 4 C4.98 4 6.96 4 9 4 C9 4.66 9 5.32 9 6 C7.02 6 5.04 6 3 6 C3.33 10.29 3.66 14.58 4 19 C5.98 19 7.96 19 10 19 C9.67 19.99 9.34 20.98 9 22 C5.625 22.125 5.625 22.125 2 22 C0 20 0 20 -0.1953125 16.7421875 C-0.17210937 15.46601562 -0.14890625 14.18984375 -0.125 12.875 C-0.10695313 11.59367187 -0.08890625 10.31234375 -0.0703125 8.9921875 C-0.04710937 8.00476563 -0.02390625 7.01734375 0 6 C-0.99 6 -1.98 6 -3 6 C-3 5.34 -3 4.68 -3 4 C-2.01 4 -1.02 4 0 4 C0 2.68 0 1.36 0 0 Z " fill="#090909" transform="translate(452,89)"/>
<path d="M0 0 C2.31 0.33 4.62 0.66 7 1 C6.67 1.66 6.34 2.32 6 3 C5.34 3 4.68 3 4 3 C4 6.63 4 10.26 4 14 C4.66 14.33 5.32 14.66 6 15 C5.01 15 4.02 15 3 15 C3 18.3 3 21.6 3 25 C2.01 25 1.02 25 0 25 C0 16.75 0 8.5 0 0 Z " fill="#090909" transform="translate(221,93)"/>
<path d="M0 0 C5.61 0 11.22 0 17 0 C17 14.19 17 28.38 17 43 C16.67 43 16.34 43 16 43 C16 29.14 16 15.28 16 1 C9.565 1.495 9.565 1.495 3 2 C3 2.66 3 3.32 3 4 C1.02 4.99 1.02 4.99 -1 6 C-0.7525 7.1446875 -0.7525 7.1446875 -0.5 8.3125 C0 11 0 11 0 14 C-2 13 -2 13 -4 10 C-4.66 9.67 -5.32 9.34 -6 9 C-4.5229682 4.93210915 -3.1458639 3.48464925 0 0 Z " fill="#7E8991" transform="translate(233,26)"/>
<path d="M0 0 C14.85 0 29.7 0 45 0 C43.68 1.32 42.36 2.64 41 4 C41 3.34 41 2.68 41 2 C20.21 2.495 20.21 2.495 -1 3 C-0.67 2.01 -0.34 1.02 0 0 Z " fill="#47555E" transform="translate(128,27)"/>
<path d="M0 0 C0.99 0 1.98 0 3 0 C3 7.92 3 15.84 3 24 C1.35 23.67 -0.3 23.34 -2 23 C-1.67 22.01 -1.34 21.02 -1 20 C-0.93259135 18.43881572 -0.91485544 16.8749748 -0.9375 15.3125 C-0.94652344 14.50425781 -0.95554687 13.69601563 -0.96484375 12.86328125 C-0.97644531 12.24839844 -0.98804687 11.63351563 -1 11 C-3.475 10.01 -3.475 10.01 -6 9 C-6 8.34 -6 7.68 -6 7 C-4.02 7 -2.04 7 0 7 C0 4.69 0 2.38 0 0 Z " fill="#070707" transform="translate(106,86)"/>
<path d="M0 0 C1.32 0 2.64 0 4 0 C2.44111903 3.8263442 -0.07127956 6.14637496 -3 9 C-3.33 9.66 -3.66 10.32 -4 11 C-11.26 10.67 -18.52 10.34 -26 10 C-26 9.67 -26 9.34 -26 9 C-20.39 9 -14.78 9 -9 9 C-9.33 8.34 -9.66 7.68 -10 7 C-11.89533342 6.53476937 -11.89533342 6.53476937 -14.0625 6.375 C-15.361875 6.25125 -16.66125 6.1275 -18 6 C-18 5.34 -18 4.68 -18 4 C-9.80743982 3.5273523 -9.80743982 3.5273523 -6.4375 5.5 C-5.963125 5.995 -5.48875 6.49 -5 7 C-4.67 6.01 -4.34 5.02 -4 4 C-3.34 4 -2.68 4 -2 4 C-1.34 2.68 -0.68 1.36 0 0 Z " fill="#475866" transform="translate(114,58)"/>
<path d="M0 0 C3.3 0 6.6 0 10 0 C10 0.66 10 1.32 10 2 C8.35 2.66 6.7 3.32 5 4 C4.67 8.29 4.34 12.58 4 17 C2.68 17 1.36 17 0 17 C0 11.39 0 5.78 0 0 Z " fill="#383838" transform="translate(120,93)"/>
<path d="M0 0 C0.33 0.66 0.66 1.32 1 2 C1.66 2.33 2.32 2.66 3 3 C2.67 3.66 2.34 4.32 2 5 C2.66 5.33 3.32 5.66 4 6 C2.125 7.0625 2.125 7.0625 0 8 C-0.66 7.67 -1.32 7.34 -2 7 C-2 7.66 -2 8.32 -2 9 C-3.1875 10.6875 -3.1875 10.6875 -5 12 C-7.6875 11.6875 -7.6875 11.6875 -10 11 C-10 11.66 -10 12.32 -10 13 C-11.32 13.33 -12.64 13.66 -14 14 C-13.67 13.34 -13.34 12.68 -13 12 C-12.34 12 -11.68 12 -11 12 C-11 11.34 -11 10.68 -11 10 C-10.34 10 -9.68 10 -9 10 C-8.67 9.01 -8.34 8.02 -8 7 C-7.34 7 -6.68 7 -6 7 C-5.7525 6.401875 -5.505 5.80375 -5.25 5.1875 C-3.83629988 2.71352479 -2.34944617 1.56629745 0 0 Z " fill="#515F6B" transform="translate(41,44)"/>
<path d="M0 0 C1.32 0 2.64 0 4 0 C4 7.26 4 14.52 4 22 C3.01 22 2.02 22 1 22 C1 16.39 1 10.78 1 5 C0.34 5 -0.32 5 -1 5 C-0.67 3.35 -0.34 1.7 0 0 Z " fill="#181818" transform="translate(435,88)"/>
<path d="M0 0 C0.99 0 1.98 0 3 0 C3 7.92 3 15.84 3 24 C2.01 24 1.02 24 0 24 C0 23.34 0 22.68 0 22 C-0.66 21.67 -1.32 21.34 -2 21 C-1.67 20.67 -1.34 20.34 -1 20 C-0.76136926 17.77572582 -0.58444777 15.54470667 -0.4375 13.3125 C-0.35371094 12.09175781 -0.26992188 10.87101562 -0.18359375 9.61328125 C-0.02031843 6.3998839 0.03458687 3.21657892 0 0 Z " fill="#040404" transform="translate(308,86)"/>
<path d="M0 0 C22.11 0 44.22 0 67 0 C66.67 0.99 66.34 1.98 66 3 C65.01 2.505 65.01 2.505 64 2 C61.96839528 1.87962039 59.9329256 1.82260878 57.89794922 1.79467773 C56.61677216 1.77473251 55.33559509 1.75478729 54.01559448 1.73423767 C52.61196006 1.71725331 51.20832437 1.70037451 49.8046875 1.68359375 C48.37264403 1.6630246 46.94060663 1.64202814 45.50857544 1.62062073 C41.73733437 1.56539597 37.96603848 1.51598853 34.19470215 1.46777344 C30.34719964 1.41756133 26.49977687 1.36187376 22.65234375 1.30664062 C15.10163 1.19905413 7.55085 1.09761029 0 1 C0 0.67 0 0.34 0 0 Z " fill="#747F82" transform="translate(305,26)"/>
<path d="M0 0 C1.32 0 2.64 0 4 0 C4 5.61 4 11.22 4 17 C2.68 17 1.36 17 0 17 C0 11.39 0 5.78 0 0 Z " fill="#121212" transform="translate(395,93)"/>
<path d="M0 0 C2.64 0 5.28 0 8 0 C8 0.66 8 1.32 8 2 C7.03320312 2.29003906 7.03320312 2.29003906 6.046875 2.5859375 C3.65648799 3.88708247 3.65648799 3.88708247 3.390625 7.0390625 C3.34421875 8.22242187 3.2978125 9.40578125 3.25 10.625 C3.19328125 11.81351563 3.1365625 13.00203125 3.078125 14.2265625 C3.05234375 15.14179687 3.0265625 16.05703125 3 17 C2.01 17 1.02 17 0 17 C0 11.39 0 5.78 0 0 Z " fill="#030303" transform="translate(250,93)"/>
<path d="M0 0 C1.9375 0.75 1.9375 0.75 4 2 C4.75 4.125 4.75 4.125 5 6 C8.43515002 6.62457273 11.49064814 7 15 7 C15 7.99 15 8.98 15 10 C11.79468579 11.6026571 8.47781792 11.48207377 5 11 C2.5625 9.4375 2.5625 9.4375 1 7 C0.25 3.25 0.25 3.25 0 0 Z " fill="#2A2A2A" transform="translate(179,100)"/>
<path d="M0 0 C0.33 0 0.66 0 1 0 C1.94870788 6.85988773 1.94870788 13.14011227 1 20 C0.67 20 0.34 20 0 20 C0 16.7 0 13.4 0 10 C-4.14093698 9.79029441 -4.14093698 9.79029441 -8 11 C-8.40729228 13.32156597 -8.74438677 15.6568787 -9 18 C-9.33 18 -9.66 18 -10 18 C-10.54372951 14.94152152 -11 12.11227195 -11 9 C-9 7 -9 7 -6.8359375 6.8046875 C-5.61777344 6.83949219 -5.61777344 6.83949219 -4.375 6.875 C-3.14910156 6.90207031 -3.14910156 6.90207031 -1.8984375 6.9296875 C-0.95871094 6.96449219 -0.95871094 6.96449219 0 7 C0 4.69 0 2.38 0 0 Z " fill="#1A1A1A" transform="translate(307,86)"/>
<path d="M0 0 C2.475 0.99 2.475 0.99 5 2 C3.44396229 5.81936528 1.04395069 8.26044438 -2 11 C-2.66 11 -3.32 11 -4 11 C-4.66 11.66 -5.32 12.32 -6 13 C-5.625 10.5625 -5.625 10.5625 -5 8 C-4.34 7.67 -3.68 7.34 -3 7 C-3.99 6.67 -4.98 6.34 -6 6 C-5.195625 5.38125 -4.39125 4.7625 -3.5625 4.125 C-0.96125481 2.25835959 -0.96125481 2.25835959 0 0 Z " fill="#F1F3F2" transform="translate(118,58)"/>
<path d="M0 0 C0.66 1.32 1.32 2.64 2 4 C1.01 4.33 0.02 4.66 -1 5 C-0.01 5.99 0.98 6.98 2 8 C-0.31 10.31 -2.62 12.62 -5 15 C-6 13 -6 13 -6 10 C-6.99 10.495 -6.99 10.495 -8 11 C-6.63629701 8.00779732 -5.05091917 5.70973471 -2.875 3.25 C-2.33617187 2.63640625 -1.79734375 2.0228125 -1.2421875 1.390625 C-0.62730469 0.70226562 -0.62730469 0.70226562 0 0 Z " fill="#F2F6F8" transform="translate(372,26)"/>
<path d="M0 0 C0.33 0.99 0.66 1.98 1 3 C3.01508358 3.73323796 3.01508358 3.73323796 5 4 C4.45276317 7.37462715 3.9451 9.08235 2 12 C-0.3828125 12.29296875 -0.3828125 12.29296875 -3.125 12.1875 C-4.03507813 12.16042969 -4.94515625 12.13335937 -5.8828125 12.10546875 C-6.58148438 12.07066406 -7.28015625 12.03585938 -8 12 C-8 11.67 -8 11.34 -8 11 C-6.68 10.67 -5.36 10.34 -4 10 C-4 9.34 -4 8.68 -4 8 C-3.195625 7.87625 -2.39125 7.7525 -1.5625 7.625 C-0.716875 7.41875 0.12875 7.2125 1 7 C1.33 6.34 1.66 5.68 2 5 C1.34 5 0.68 5 0 5 C0 5.66 0 6.32 0 7 C-0.66 7 -1.32 7 -2 7 C-2.125 4.625 -2.125 4.625 -2 2 C-1.34 1.34 -0.68 0.68 0 0 Z " fill="#485B6B" transform="translate(218,52)"/>
<path d="M0 0 C0.99 0 1.98 0 3 0 C3 5.61 3 11.22 3 17 C2.01 17 1.02 17 0 17 C0 11.39 0 5.78 0 0 Z " fill="#030303" transform="translate(335,93)"/>
<path d="M0 0 C0.99 0 1.98 0 3 0 C3 5.61 3 11.22 3 17 C2.01 17 1.02 17 0 17 C0 11.39 0 5.78 0 0 Z " fill="#020202" transform="translate(141,93)"/>
<path d="M0 0 C1.32 0 2.64 0 4 0 C4.20496094 0.75925781 4.40992188 1.51851563 4.62109375 2.30078125 C4.89050781 3.29464844 5.15992188 4.28851563 5.4375 5.3125 C5.83775391 6.79169922 5.83775391 6.79169922 6.24609375 8.30078125 C6.78079425 10.21517526 7.37144538 12.11433615 8 14 C6.68 14.33 5.36 14.66 4 15 C3.32779649 13.06441401 2.66241923 11.12645628 2 9.1875 C1.62875 8.10855469 1.2575 7.02960938 0.875 5.91796875 C0 3 0 3 0 0 Z " fill="#272727" transform="translate(471,93)"/>
<path d="M0 0 C0.99 0.33 1.98 0.66 3 1 C3.99 1 4.98 1 6 1 C5.505 1.598125 5.01 2.19625 4.5 2.8125 C2.71723582 4.97029994 2.71723582 4.97029994 3 8 C0.36 8 -2.28 8 -5 8 C-5.33 7.34 -5.66 6.68 -6 6 C-5.34 6 -4.68 6 -4 6 C-3.71125 5.195625 -3.4225 4.39125 -3.125 3.5625 C-2 1 -2 1 0 0 Z " fill="#42505C" transform="translate(29,57)"/>
<path d="M0 0 C0.39832031 0.49113281 0.79664063 0.98226562 1.20703125 1.48828125 C3.5121755 3.43183425 4.7196719 3.316536 7.6875 3.1875 C8.89986328 3.14689453 8.89986328 3.14689453 10.13671875 3.10546875 C10.75160156 3.07066406 11.36648438 3.03585938 12 3 C12 3.99 12 4.98 12 6 C8.43528609 7.18823797 5.7441664 7.26274852 2 7 C-0.4375 5.5 -0.4375 5.5 -2 4 C-1 1 -1 1 0 0 Z " fill="#131313" transform="translate(353,104)"/>
<path d="M0 0 C1.32 0 2.64 0 4 0 C2.76123355 5.69305433 1.43723997 11.35370013 0 17 C-0.99 16.34 -1.98 15.68 -3 15 C-2.78537109 14.18789062 -2.78537109 14.18789062 -2.56640625 13.359375 C-1.92079535 10.67007168 -1.4236692 7.97254755 -0.9375 5.25 C-0.67259766 3.77273437 -0.67259766 3.77273437 -0.40234375 2.265625 C-0.26957031 1.51796875 -0.13679688 0.7703125 0 0 Z " fill="#1C1C1C" transform="translate(37,93)"/>
<path d="M0 0 C4.875 4.625 4.875 4.625 6 8 C5.34 8.66 4.68 9.32 4 10 C3.34 8.68 2.68 7.36 2 6 C1.67 6.66 1.34 7.32 1 8 C0.34 8 -0.32 8 -1 8 C-0.67 8.99 -0.34 9.98 0 11 C-1.32 11.33 -2.64 11.66 -4 12 C-4.66 11.01 -5.32 10.02 -6 9 C-5.34 8.67 -4.68 8.34 -4 8 C-3.67 7.34 -3.34 6.68 -3 6 C-2.34 6 -1.68 6 -1 6 C-0.67 4.02 -0.34 2.04 0 0 Z " fill="#526370" transform="translate(203,37)"/>
<path d="M0 0 C0 2.85062324 -0.35451633 4.43418582 -1.3125 7.0625 C-1.55613281 7.75472656 -1.79976562 8.44695312 -2.05078125 9.16015625 C-3 11 -3 11 -6 13 C-8.1875 12.625 -8.1875 12.625 -10 12 C-3.84965831 3.55353075 -3.84965831 3.55353075 0 0 Z " fill="#E6EAEC" transform="translate(42,58)"/>
<path d="M0 0 C2.33944736 0.28730055 4.6739143 0.61936779 7 1 C7 2.32 7 3.64 7 5 C4.03 5 1.06 5 -2 5 C-1 1 -1 1 0 0 Z " fill="#DFDFDF" transform="translate(56,95)"/>
<path d="M0 0 C0.33 0 0.66 0 1 0 C1 2.31 1 4.62 1 7 C9.25 7 17.5 7 26 7 C26 7.33 26 7.66 26 8 C18.41 8.33 10.82 8.66 3 9 C2.67 9.66 2.34 10.32 2 11 C1.34 11 0.68 11 0 11 C0 7.37 0 3.74 0 0 Z " fill="#5E6F7B" transform="translate(45,58)"/>
<path d="M0 0 C1.32 0 2.64 0 4 0 C4 3.63 4 7.26 4 11 C3.67 10.34 3.34 9.68 3 9 C2.01 9 1.02 9 0 9 C-1.15941038 5.52176885 -0.70820884 3.54104422 0 0 Z " fill="#5F6D77" transform="translate(483,58)"/>
<path d="M0 0 C2.05422055 2.05422055 2.68137592 3.33009024 3.6875 6 C3.95949219 6.70125 4.23148437 7.4025 4.51171875 8.125 C5 10 5 10 4 12 C0.125 10.25 0.125 10.25 -1 8 C-1.125 4.4375 -1.125 4.4375 -1 1 C-0.67 0.67 -0.34 0.34 0 0 Z " fill="#111111" transform="translate(268,98)"/>
<path d="M0 0 C2.31 0.33 4.62 0.66 7 1 C7 2.32 7 3.64 7 5 C4.36 5 1.72 5 -1 5 C-0.67 3.35 -0.34 1.7 0 0 Z " fill="#E1E1E1" transform="translate(184,95)"/>
<path d="M0 0 C1.22589844 0.01353516 1.22589844 0.01353516 2.4765625 0.02734375 C3.41628906 0.04474609 3.41628906 0.04474609 4.375 0.0625 C4.375 1.0525 4.375 2.0425 4.375 3.0625 C3.281875 2.98 2.18875 2.8975 1.0625 2.8125 C-2.65942858 2.65146039 -2.65942858 2.65146039 -4.5625 5.0625 C-4.913125 5.7225 -5.26375 6.3825 -5.625 7.0625 C-6.615 6.4025 -7.605 5.7425 -8.625 5.0625 C-6.51899199 0.39919656 -5.01778996 -0.07168271 0 0 Z " fill="#111111" transform="translate(58.625,92.9375)"/>
<path d="M0 0 C0.99 0 1.98 0 3 0 C3 1.32 3 2.64 3 4 C4.98 4 6.96 4 9 4 C9 4.66 9 5.32 9 6 C4.6835078 6.76173392 1.25566547 7.16063604 -3 6 C-3 5.34 -3 4.68 -3 4 C-2.01 4 -1.02 4 0 4 C0 2.68 0 1.36 0 0 Z " fill="#0B0B0B" transform="translate(452,89)"/>
<path d="M0 0 C0.66 0.33 1.32 0.66 2 1 C1.1875 4.4375 1.1875 4.4375 0 8 C-0.99 8.33 -1.98 8.66 -3 9 C-3.33 9.66 -3.66 10.32 -4 11 C-4.66 10.67 -5.32 10.34 -6 10 C-4.34832443 6.4213696 -2.21713508 3.25179812 0 0 Z " fill="#58636E" transform="translate(226,36)"/>
<path d="M0 0 C0.66 0 1.32 0 2 0 C2 3.96 2 7.92 2 12 C1.01 12 0.02 12 -1 12 C-1.02687279 10.18757948 -1.04633715 8.37504767 -1.0625 6.5625 C-1.07410156 5.55316406 -1.08570312 4.54382813 -1.09765625 3.50390625 C-1 1 -1 1 0 0 Z " fill="#030303" transform="translate(122,98)"/>
<path d="M0 0 C1.670625 0.061875 1.670625 0.061875 3.375 0.125 C3.375 3.755 3.375 7.385 3.375 11.125 C3.045 11.125 2.715 11.125 2.375 11.125 C2.375 8.485 2.375 5.845 2.375 3.125 C1.611875 3.33125 0.84875 3.5375 0.0625 3.75 C-2.625 4.125 -2.625 4.125 -5.625 2.125 C-3.625 0.125 -3.625 0.125 0 0 Z " fill="#556269" transform="translate(295.625,57.875)"/>
<path d="M0 0 C1.65 0.33 3.3 0.66 5 1 C3.38405168 3.04119788 1.7143618 5.04072937 0 7 C-0.66 7 -1.32 7 -2 7 C-2.66 8.32 -3.32 9.64 -4 11 C-4.6875 9.25 -4.6875 9.25 -5 7 C-3.5399926 4.56665433 -2.54764436 3.27382218 0 2 C0 1.34 0 0.68 0 0 Z " fill="#56626E" transform="translate(149,45)"/>
<path d="M0 0 C0.66 0.33 1.32 0.66 2 1 C0.22054913 5.04420651 -2.39529673 8.46078487 -5 12 C-5.66 11.34 -6.32 10.68 -7 10 C-6.02223933 8.51990357 -5.0427506 7.04094856 -4.0625 5.5625 C-3.51722656 4.73878906 -2.97195312 3.91507813 -2.41015625 3.06640625 C-1 1 -1 1 0 0 Z " fill="#EFF6F7" transform="translate(231,25)"/>
<path d="M0 0 C0.33 0.66 0.66 1.32 1 2 C3.31 2 5.62 2 8 2 C8.33 2.99 8.66 3.98 9 5 C2.72307692 6.35384615 2.72307692 6.35384615 -0.9375 4.5625 C-1.618125 4.046875 -2.29875 3.53125 -3 3 C-2.01 2.67 -1.02 2.34 0 2 C0 1.34 0 0.68 0 0 Z " fill="#252525" transform="translate(96,105)"/>
<path d="M0 0 C0.33 0.99 0.66 1.98 1 3 C3.01508358 3.73323796 3.01508358 3.73323796 5 4 C5 3.34 5 2.68 5 2 C5.99 1.67 6.98 1.34 8 1 C8.66 1.33 9.32 1.66 10 2 C10 1.34 10 0.68 10 0 C10.66 0 11.32 0 12 0 C11.67 0.99 11.34 1.98 11 3 C9.35 3 7.7 3 6 3 C6 3.66 6 4.32 6 5 C7.32 4.67 8.64 4.34 10 4 C10.33 4.66 10.66 5.32 11 6 C9.54207116 6.05399736 8.08357288 6.09279177 6.625 6.125 C5.81289062 6.14820313 5.00078125 6.17140625 4.1640625 6.1953125 C2 6 2 6 0 4 C0 2.68 0 1.36 0 0 Z " fill="#40505D" transform="translate(208,57)"/>
<path d="M0 0 C5.28 0 10.56 0 16 0 C15.34 1.32 14.68 2.64 14 4 C12.68 3.67 11.36 3.34 10 3 C10 2.34 10 1.68 10 1 C7.56282742 1.27034634 7.56282742 1.27034634 5 2 C4.01 3.485 4.01 3.485 3 5 C2.34 5 1.68 5 1 5 C0.67 3.35 0.34 1.7 0 0 Z " fill="#434F5B" transform="translate(381,27)"/>
<path d="M0 0 C0.99 0.33 1.98 0.66 3 1 C3.625 3.375 3.625 3.375 4 6 C3.34 6.66 2.68 7.32 2 8 C0.02 7.34 -1.96 6.68 -4 6 C-3.67 5.01 -3.34 4.02 -3 3 C-2.34 3 -1.68 3 -1 3 C-0.67 2.01 -0.34 1.02 0 0 Z " fill="#525F68" transform="translate(46,38)"/>
<path d="M0 0 C0.99 1.32 1.98 2.64 3 4 C-0.32307692 7.93846154 -0.32307692 7.93846154 -3.75 8.25 C-4.4925 8.1675 -5.235 8.085 -6 8 C-6 7.01 -6 6.02 -6 5 C-4.35 5 -2.7 5 -1 5 C-0.67 3.35 -0.34 1.7 0 0 Z " fill="#232323" transform="translate(476,110)"/>
<path d="M0 0 C1.32 0 2.64 0 4 0 C2.4169423 4.2742558 -0.50568404 6.26531794 -4 9 C-4 7.35 -4 5.7 -4 4 C-3.34 4 -2.68 4 -2 4 C-1.34 2.68 -0.68 1.36 0 0 Z " fill="#53606A" transform="translate(114,58)"/>
<path d="M0 0 C0 3.52599722 -0.53480434 3.97292161 -2.8125 6.5 C-3.59560547 7.38171875 -3.59560547 7.38171875 -4.39453125 8.28125 C-5.8972639 9.89001488 -7.43173454 11.45528207 -9 13 C-9.99 12.67 -10.98 12.34 -12 12 C-11.67 11.34 -11.34 10.68 -11 10 C-10.34 10 -9.68 10 -9 10 C-9 9.34 -9 8.68 -9 8 C-7.28515625 6.30859375 -7.28515625 6.30859375 -5.0625 4.4375 C-4.33160156 3.81746094 -3.60070312 3.19742188 -2.84765625 2.55859375 C-1.93306641 1.78708984 -1.93306641 1.78708984 -1 1 C-0.67 0.67 -0.34 0.34 0 0 Z " fill="#E3EAEC" transform="translate(166,35)"/>
<path d="M0 0 C0.66 0 1.32 0 2 0 C2.33 0.66 2.66 1.32 3 2 C3.66 1.34 4.32 0.68 5 0 C5.66 0.66 6.32 1.32 7 2 C6.04882866 3.1725131 5.08882991 4.33787015 4.125 5.5 C3.59132813 6.1496875 3.05765625 6.799375 2.5078125 7.46875 C2.01023437 7.9740625 1.51265625 8.479375 1 9 C0.34 9 -0.32 9 -1 9 C-0.67 6.03 -0.34 3.06 0 0 Z " fill="#4D5B63" transform="translate(363,28)"/>
<path d="M0 0 C0.66 0.33 1.32 0.66 2 1 C1.01 2.32 0.02 3.64 -1 5 C-0.01 5 0.98 5 2 5 C2 5.66 2 6.32 2 7 C0.02 7.66 -1.96 8.32 -4 9 C-4.66 8.34 -5.32 7.68 -6 7 C-5.67 6.34 -5.34 5.68 -5 5 C-4.34 5 -3.68 5 -3 5 C-2.5359375 4.0409375 -2.5359375 4.0409375 -2.0625 3.0625 C-1 1 -1 1 0 0 Z " fill="#5A6672" transform="translate(56,28)"/>
<path d="M0 0 C0.33 0 0.66 0 1 0 C1 3.63 1 7.26 1 11 C0.01 11 -0.98 11 -2 11 C-2.05399736 9.54207116 -2.09279177 8.08357288 -2.125 6.625 C-2.15980469 5.40683594 -2.15980469 5.40683594 -2.1953125 4.1640625 C-2 2 -2 2 0 0 Z " fill="#0A0A0A" transform="translate(352,95)"/>
<path d="M0 0 C2.64 0 5.28 0 8 0 C8 0.66 8 1.32 8 2 C4.04 3.98 4.04 3.98 0 6 C0 4.02 0 2.04 0 0 Z " fill="#101010" transform="translate(250,93)"/>
<path d="M0 0 C3.39417765 3.12621626 5.6062718 5.56541027 7 10 C6.01 9.67 5.02 9.34 4 9 C3.67 8.34 3.34 7.68 3 7 C2.01 7.33 1.02 7.66 0 8 C0 5.36 0 2.72 0 0 Z " fill="#54626D" transform="translate(196,27)"/>
<path d="M0 0 C1.39195915 4.17587745 -0.17676781 6.13474776 -2 10 C-2.99 9.01 -3.98 8.02 -5 7 C-4.67 6.01 -4.34 5.02 -4 4 C-3.34 4 -2.68 4 -2 4 C-2 3.01 -2 2.02 -2 1 C-1.34 0.67 -0.68 0.34 0 0 Z " fill="#070707" transform="translate(481,103)"/>
<path d="M0 0 C1.65 0 3.3 0 5 0 C4.01 2.64 3.02 5.28 2 8 C1.01 7.01 0.02 6.02 -1 5 C-0.6875 2.3125 -0.6875 2.3125 0 0 Z " fill="#E9E9E9" transform="translate(477,97)"/>
<path d="M0 0 C0.99 0.495 0.99 0.495 2 1 C2 1.66 2 2.32 2 3 C2.66 3 3.32 3 4 3 C4 4.98 4 6.96 4 9 C2.68 8.67 1.36 8.34 0 8 C0 5.36 0 2.72 0 0 Z " fill="#1C1C1C" transform="translate(63,93)"/>
<path d="M0 0 C0 1.66666667 0 3.33333333 0 5 C2.64 5.33 5.28 5.66 8 6 C8 6.33 8 6.66 8 7 C3.38 7 -1.24 7 -6 7 C-4.02 4.69 -2.04 2.38 0 0 Z " fill="#566068" transform="translate(345,62)"/>
<path d="M0 0 C2.2477975 2.05233685 3.0022242 3.00667261 4 6 C2.68 6.99 1.36 7.98 0 9 C0 8.01 0 7.02 0 6 C-0.99 5.67 -1.98 5.34 -3 5 C-3 4.34 -3 3.68 -3 3 C-2.34 3 -1.68 3 -1 3 C-0.67 2.01 -0.34 1.02 0 0 Z " fill="#3C505F" transform="translate(205,42)"/>
<path d="M0 0 C0.66 0.33 1.32 0.66 2 1 C2 4 2 4 0.5 5.6875 C0.005 6.120625 -0.49 6.55375 -1 7 C-1.33 6.67 -1.66 6.34 -2 6 C-2.33 7.65 -2.66 9.3 -3 11 C-3.33 11 -3.66 11 -4 11 C-4.36630156 7.06225823 -4.30233203 5.43460229 -2 2.125 C-1.34 1.42375 -0.68 0.7225 0 0 Z " fill="#3A3A3A" transform="translate(270,93)"/>
<path d="M0 0 C0.66 0.33 1.32 0.66 2 1 C1.01 3.64 0.02 6.28 -1 9 C-1.66 8.67 -2.32 8.34 -3 8 C-3.75 5.5625 -3.75 5.5625 -4 3 C-2 1 -2 1 0 0 Z " fill="#EEEEEE" transform="translate(164,96)"/>
<path d="M0 0 C0.33 0 0.66 0 1 0 C1.94870788 6.85988773 1.94870788 13.14011227 1 20 C0.67 20 0.34 20 0 20 C0 16.7 0 13.4 0 10 C-0.66 9.67 -1.32 9.34 -2 9 C-1.67 8.34 -1.34 7.68 -1 7 C-0.63858045 4.67085177 -0.30300475 2.33746522 0 0 Z " fill="#595959" transform="translate(307,86)"/>
<path d="M0 0 C1.32 0 2.64 0 4 0 C4.33 2.64 4.66 5.28 5 8 C2 7 2 7 0.8125 5.125 C0 3 0 3 0 0 Z " fill="#0E0E0E" transform="translate(16,93)"/>
<path d="M0 0 C2.375 -0.1875 2.375 -0.1875 5 0 C5.66 0.99 6.32 1.98 7 3 C6.34 3.66 5.68 4.32 5 5 C3.68 5 2.36 5 1 5 C0.67 3.35 0.34 1.7 0 0 Z " fill="#828282" transform="translate(140,88)"/>
<path d="M0 0 C0.66 0.99 1.32 1.98 2 3 C-0.31 5.31 -2.62 7.62 -5 10 C-5.66 9.67 -6.32 9.34 -7 9 C-5.76448756 5.29346269 -4.03334922 4.35084565 -1 2 C-0.67 1.34 -0.34 0.68 0 0 Z " fill="#ECF4F8" transform="translate(352,51)"/>
<path d="M0 0 C1.98 0.495 1.98 0.495 4 1 C3.34 2.32 2.68 3.64 2 5 C3.32 5.66 4.64 6.32 6 7 C5.01 8.485 5.01 8.485 4 10 C4 9.34 4 8.68 4 8 C2.35 8 0.7 8 -1 8 C-1.125 2.25 -1.125 2.25 0 0 Z " fill="#3E4F5C" transform="translate(219,48)"/>
<path d="M0 0 C0.66 0.33 1.32 0.66 2 1 C-0.44773169 6.20142984 -4.40211381 8.82188865 -9 12 C-9.66 11.67 -10.32 11.34 -11 11 C-10.28972656 10.37351562 -9.57945312 9.74703125 -8.84765625 9.1015625 C-7.46900391 7.87566406 -7.46900391 7.87566406 -6.0625 6.625 C-5.14597656 5.81289063 -4.22945313 5.00078125 -3.28515625 4.1640625 C-0.96398605 2.21290653 -0.96398605 2.21290653 0 0 Z " fill="#D8E0E4" transform="translate(385,38)"/>
<path d="M0 0 C5.53846154 -0.36923077 5.53846154 -0.36923077 7.875 1.5 C8.24625 1.995 8.6175 2.49 9 3 C3.25 3.125 3.25 3.125 1 2 C1 4.64 1 7.28 1 10 C0.67 10 0.34 10 0 10 C0 6.7 0 3.4 0 0 Z " fill="#373737" transform="translate(224,108)"/>
<path d="M0 0 C0 0.99 0 1.98 0 3 C-3.21451269 4.60725635 -6.43612536 4.05748185 -10 4 C-6.83527002 0.53386716 -4.79371499 0 0 0 Z " fill="#383838" transform="translate(66,107)"/>
<path d="M0 0 C1.32 0 2.64 0 4 0 C4 2.64 4 5.28 4 8 C3.34 8 2.68 8 2 8 C0.74335022 5.09399739 0 3.20395416 0 0 Z " fill="#0F0F0F" transform="translate(471,93)"/>
<path d="M0 0 C0.66 0.33 1.32 0.66 2 1 C0.35 3.64 -1.3 6.28 -3 9 C-4.32 8.67 -5.64 8.34 -7 8 C-5.38405168 5.95880212 -3.7143618 3.95927063 -2 2 C-1.34 2 -0.68 2 0 2 C0 1.34 0 0.68 0 0 Z " fill="#59636B" transform="translate(24,60)"/>
<path d="M0 0 C-0.33 1.65 -0.66 3.3 -1 5 C-4.3 5 -7.6 5 -11 5 C-11 4.67 -11 4.34 -11 4 C-9.68 3.67 -8.36 3.34 -7 3 C-7 2.34 -7 1.68 -7 1 C-2.25 0 -2.25 0 0 0 Z " fill="#596874" transform="translate(221,59)"/>
<path d="M0 0 C0.33 0.99 0.66 1.98 1 3 C-2.08809695 4.76462683 -3.23312136 5 -7 5 C-7.33 4.01 -7.66 3.02 -8 2 C-5.36 1.34 -2.72 0.68 0 0 Z " fill="#1C1C1C" transform="translate(334,106)"/>
<path d="M0 0 C0.99 0.33 1.98 0.66 3 1 C2.34 1 1.68 1 1 1 C0.67 3.31 0.34 5.62 0 8 C-1.32 8.33 -2.64 8.66 -4 9 C-2.94124926 5.59687262 -1.99097846 2.98646769 0 0 Z " fill="#242424" transform="translate(27,98)"/>
<path d="M0 0 C7.75 -0.125 7.75 -0.125 10 1 C9.67 1.99 9.34 2.98 9 4 C5.7 3.34 2.4 2.68 -1 2 C-0.67 1.34 -0.34 0.68 0 0 Z " fill="#080808" transform="translate(272,93)"/>
<path d="M0 0 C0.33 0.66 0.66 1.32 1 2 C2.89533342 2.46523063 2.89533342 2.46523063 5.0625 2.625 C6.361875 2.74875 7.66125 2.8725 9 3 C8.67 3.99 8.34 4.98 8 6 C6.51793505 5.745504 5.03931385 5.47088238 3.5625 5.1875 C2.73878906 5.03667969 1.91507813 4.88585938 1.06640625 4.73046875 C0.38449219 4.48941406 -0.29742187 4.24835937 -1 4 C-1.33 3.01 -1.66 2.02 -2 1 C-1.34 0.67 -0.68 0.34 0 0 Z " fill="#4F5D67" transform="translate(221,45)"/>
<path d="M0 0 C4.875 4.75 4.875 4.75 6 7 C4.68 7 3.36 7 2 7 C1.67 7.66 1.34 8.32 1 9 C0.67 6.03 0.34 3.06 0 0 Z " fill="#E7ECED" transform="translate(191,39)"/>
<path d="M0 0 C3.63 0 7.26 0 11 0 C11 0.33 11 0.66 11 1 C8.69 1 6.38 1 4 1 C4 1.66 4 2.32 4 3 C3.34 3 2.68 3 2 3 C1.67 3.99 1.34 4.98 1 6 C0.67 4.02 0.34 2.04 0 0 Z " fill="#626C74" transform="translate(403,26)"/>
<path d="M0 0 C0.66 1.32 1.32 2.64 2 4 C1.01 4.33 0.02 4.66 -1 5 C-2.68711423 6.6459651 -4.3545622 8.31237149 -6 10 C-6.99 10.495 -6.99 10.495 -8 11 C-6.63629701 8.00779732 -5.05091917 5.70973471 -2.875 3.25 C-2.33617187 2.63640625 -1.79734375 2.0228125 -1.2421875 1.390625 C-0.62730469 0.70226562 -0.62730469 0.70226562 0 0 Z " fill="#DFE6E6" transform="translate(372,26)"/>
<path d="M0 0 C0.33 0.99 0.66 1.98 1 3 C-1 5 -1 5 -4.125 5.125 C-5.548125 5.063125 -5.548125 5.063125 -7 5 C-4.63707344 2.47411298 -3.33537489 1.11179163 0 0 Z " fill="#121212" transform="translate(236,105)"/>
<path d="M0 0 C1.65 0 3.3 0 5 0 C5.33 1.65 5.66 3.3 6 5 C4.68 5.33 3.36 5.66 2 6 C1.34 4.02 0.68 2.04 0 0 Z " fill="#1E1E1E" transform="translate(408,93)"/>
<path d="M0 0 C1.32 0 2.64 0 4 0 C3.67 1.65 3.34 3.3 3 5 C1.68 5 0.36 5 -1 5 C-0.67 3.35 -0.34 1.7 0 0 Z " fill="#808080" transform="translate(435,88)"/>
<path d="M0 0 C0 0.99 0 1.98 0 3 C-3.47325181 4.1577506 -6.36067448 4.06866652 -10 4 C-6.64877401 1.34213111 -4.39380802 0 0 0 Z " fill="#434343" transform="translate(365,107)"/>
<path d="M0 0 C1.5 1.125 1.5 1.125 3 3 C3.1875 6.1875 3.1875 6.1875 3 9 C-1 4.375 -1 4.375 -1 1 C-0.67 0.67 -0.34 0.34 0 0 Z " fill="#222222" transform="translate(282,95)"/>
<path d="M0 0 C2 1.375 2 1.375 4 3 C4 3.66 4 4.32 4 5 C3.34 5 2.68 5 2 5 C2 5.66 2 6.32 2 7 C1.34 7 0.68 7 0 7 C0 5.68 0 4.36 0 3 C-0.66 2.67 -1.32 2.34 -2 2 C-1.34 2 -0.68 2 0 2 C0 1.34 0 0.68 0 0 Z " fill="#282828" transform="translate(191,93)"/>
<path d="M0 0 C0.66 1.32 1.32 2.64 2 4 C0.03533587 5.06775224 -1.96855359 6.06553465 -4 7 C-4.66 6.67 -5.32 6.34 -6 6 C-4.02 4.02 -2.04 2.04 0 0 Z " fill="#515D68" transform="translate(146,39)"/>
<path d="M0 0 C1.65 1.65 3.3 3.3 5 5 C4.67 5.99 4.34 6.98 4 8 C1 8 1 8 -1 7 C-1 4.37886292 -0.68707555 2.49064888 0 0 Z " fill="#3D4D5D" transform="translate(230,36)"/>
<path d="M0 0 C1.98 0 3.96 0 6 0 C5.67 0.99 5.34 1.98 5 3 C2.69 3 0.38 3 -2 3 C-1.34 2.67 -0.68 2.34 0 2 C0 1.34 0 0.68 0 0 Z " fill="#353535" transform="translate(456,108)"/>
<path d="M0 0 C0 0.66 0 1.32 0 2 C-4.455 2.495 -4.455 2.495 -9 3 C-4.5 -1.5 -4.5 -1.5 0 0 Z " fill="#2B2B2B" transform="translate(308,108)"/>
<path d="M0 0 C0.66 0.33 1.32 0.66 2 1 C1.3125 2.9375 1.3125 2.9375 0 5 C-2.625 5.75 -2.625 5.75 -5 6 C-3.35 4.02 -1.7 2.04 0 0 Z " fill="#505B64" transform="translate(134,50)"/>
<path d="M0 0 C1.65 1.65 3.3 3.3 5 5 C3.125 6.0625 3.125 6.0625 1 7 C0.34 6.67 -0.32 6.34 -1 6 C-0.67 4.02 -0.34 2.04 0 0 Z " fill="#E8E8E8" transform="translate(179,105)"/>
<path d="M0 0 C0.66 0 1.32 0 2 0 C2 1.32 2 2.64 2 4 C-0.31 4 -2.62 4 -5 4 C-5 3.34 -5 2.68 -5 2 C-3.35 2 -1.7 2 0 2 C0 1.34 0 0.68 0 0 Z " fill="#050505" transform="translate(193,98)"/>
<path d="M0 0 C-1.96382007 1.50559539 -3.78263366 2.89131683 -6 4 C-6.65555119 6.52733235 -6.65555119 6.52733235 -7 9 C-7.33 9 -7.66 9 -8 9 C-8.36190476 3.57142857 -8.36190476 3.57142857 -6.8125 1.125 C-4.43963721 -0.34781139 -2.74086056 -0.22223194 0 0 Z " fill="#D1D1D1" transform="translate(278,95)"/>
<path d="M0 0 C1.32 0 2.64 0 4 0 C3.34 1.98 2.68 3.96 2 6 C1.67 5.34 1.34 4.68 1 4 C0.34 4 -0.32 4 -1 4 C-0.67 2.68 -0.34 1.36 0 0 Z " fill="#181818" transform="translate(483,93)"/>
<path d="M0 0 C0 0.66 0 1.32 0 2 C-2.31 2 -4.62 2 -7 2 C-7 1.34 -7 0.68 -7 0 C-4.3333581 -1.33332095 -2.83319697 -0.67102033 0 0 Z " fill="#46515A" transform="translate(249,67)"/>
<path d="M0 0 C1.65 0 3.3 0 5 0 C5.33 0.99 5.66 1.98 6 3 C4.02 3 2.04 3 0 3 C0 2.01 0 1.02 0 0 Z " fill="#232323" transform="translate(272,108)"/>
<path d="M0 0 C0.33 0.66 0.66 1.32 1 2 C1.99 2 2.98 2 4 2 C4 2.66 4 3.32 4 4 C2.35 4.66 0.7 5.32 -1 6 C-1.66 5.34 -2.32 4.68 -3 4 C-2.01 4 -1.02 4 0 4 C0 2.68 0 1.36 0 0 Z " fill="#F0F8F8" transform="translate(399,65)"/>
<path d="M0 0 C0.33 1.32 0.66 2.64 1 4 C-0.8125 5.5625 -0.8125 5.5625 -3 7 C-3.99 6.67 -4.98 6.34 -6 6 C-5.195625 5.38125 -4.39125 4.7625 -3.5625 4.125 C-0.96125481 2.25835959 -0.96125481 2.25835959 0 0 Z " fill="#DFE4E6" transform="translate(118,58)"/>
<path d="M0 0 C0.66 0.33 1.32 0.66 2 1 C0.66667905 4.99996286 -1.4957827 5.83782337 -5 8 C-3.62845496 5.04590299 -2.01136276 2.55991624 0 0 Z " fill="#D7DEE3" transform="translate(229,50)"/>
<path d="M0 0 C0.66 0 1.32 0 2 0 C2 0.66 2 1.32 2 2 C1.34 2 0.68 2 0 2 C-0.66 3.65 -1.32 5.3 -2 7 C-2.99 6.34 -3.98 5.68 -5 5 C-4.34 5 -3.68 5 -3 5 C-2.5359375 4.0409375 -2.5359375 4.0409375 -2.0625 3.0625 C-1 1 -1 1 0 0 Z " fill="#4B5967" transform="translate(238,35)"/>
</svg>
