<?xml version="1.0" encoding="UTF-8"?>
<svg version="1.1" xmlns="http://www.w3.org/2000/svg" width="1276" height="339">
<path d="M0 0 C421.08 0 842.16 0 1276 0 C1276 111.87 1276 223.74 1276 339 C854.92 339 433.84 339 0 339 C0 227.13 0 115.26 0 0 Z " fill="#FEFEFE" transform="translate(0,0)"/>
<path d="M0 0 C102.96 0 205.92 0 312 0 C312 17.49 312 34.98 312 53 C209.04 53 106.08 53 0 53 C0 35.51 0 18.02 0 0 Z " fill="#0A5BAA" transform="translate(149,196)"/>
<path d="M0 0 C102.96 0 205.92 0 312 0 C312 17.49 312 34.98 312 53 C209.04 53 106.08 53 0 53 C0 35.51 0 18.02 0 0 Z " fill="#0A5BA9" transform="translate(149,90)"/>
<path d="M0 0 C17.49 0 34.98 0 53 0 C53 52.47 53 104.94 53 159 C35.18 159 17.36 159 -1 159 C-0.505 80.295 -0.505 80.295 0 0 Z " fill="#095BAA" transform="translate(33,90)"/>
<path d="M0 0 C17.49 0 34.98 0 53 0 C53 52.47 53 104.94 53 159 C35.51 159 18.02 159 0 159 C0 106.53 0 54.06 0 0 Z " fill="#0C5BAA" transform="translate(524,90)"/>
<path d="M0 0 C22.44 0 44.88 0 68 0 C68 17.49 68 34.98 68 53 C45.56 53 23.12 53 0 53 C0 35.51 0 18.02 0 0 Z " fill="#0E5CAA" transform="translate(1100,141)"/>
<path d="M0 0 C21.78 0 43.56 0 66 0 C66 17.49 66 34.98 66 53 C59.73 53 53.46 53 47 53 C47 49.04 47 45.08 47 41 C37.43 41 27.86 41 18 41 C18 44.96 18 48.92 18 53 C12.06 53 6.12 53 0 53 C0 35.51 0 18.02 0 0 Z " fill="#0E5CAA" transform="translate(807,141)"/>
<path d="M0 0 C6.27 0 12.54 0 19 0 C19 15.18 19 30.36 19 46 C20.65 46 22.3 46 24 46 C24 30.82 24 15.64 24 0 C30.6 0 37.2 0 44 0 C44 15.18 44 30.36 44 46 C45.65 46 47.3 46 49 46 C49 30.82 49 15.64 49 0 C55.27 0 61.54 0 68 0 C68 17.49 68 34.98 68 53 C45.56 53 23.12 53 0 53 C0 35.51 0 18.02 0 0 Z " fill="#095BA9" transform="translate(732,141)"/>
<path d="M0 0 C6.27 0 12.54 0 19 0 C19 6.27 19 12.54 19 19 C30.55 19 42.1 19 54 19 C54 12.73 54 6.46 54 0 C60.27 0 66.54 0 73 0 C73 17.49 73 34.98 73 53 C66.73 53 60.46 53 54 53 C54 46.73 54 40.46 54 34 C42.45 34 30.9 34 19 34 C19 40.27 19 46.54 19 53 C12.73 53 6.46 53 0 53 C0 35.51 0 18.02 0 0 Z " fill="#105DAB" transform="translate(652,141)"/>
<path d="M0 0 C22.77 0 45.54 0 69 0 C69 17.49 69 34.98 69 53 C62.73 53 56.46 53 50 53 C50 40.46 50 27.92 50 15 C39.77 15 29.54 15 19 15 C19 27.87 19 40.74 19 54 C12.73 54 6.46 54 0 54 C0 36.18 0 18.36 0 0 Z " fill="#145FAC" transform="translate(1175,141)"/>
<path d="M0 0 C6.27 0 12.54 0 19 0 C19 6.27 19 12.54 19 19 C28.9 19 38.8 19 49 19 C49 12.73 49 6.46 49 0 C55.27 0 61.54 0 68 0 C68 17.49 68 34.98 68 53 C61.73 53 55.46 53 49 53 C49 46.73 49 40.46 49 34 C39.1 34 29.2 34 19 34 C19 40.27 19 46.54 19 53 C12.73 53 6.46 53 0 53 C0 35.51 0 18.02 0 0 Z " fill="#0A5BAA" transform="translate(956,141)"/>
<path d="M0 0 C22.44 0 44.88 0 68 0 C68 4.95 68 9.9 68 15 C51.83 15 35.66 15 19 15 C19 22.92 19 30.84 19 39 C35.17 39 51.34 39 68 39 C68 43.62 68 48.24 68 53 C45.56 53 23.12 53 0 53 C0 35.51 0 18.02 0 0 Z " fill="#115DAA" transform="translate(881,141)"/>
<path d="M0 0 C5.61 0 11.22 0 17 0 C17.33 14.85 17.66 29.7 18 45 C19.98 45.33 21.96 45.66 24 46 C24 30.82 24 15.64 24 0 C29.94 0 35.88 0 42 0 C42 14.85 42 29.7 42 45 C39.970332 41.955498 39.75143699 41.39723672 39.77294922 37.98754883 C39.77310028 37.18694534 39.77325134 36.38634186 39.77340698 35.56147766 C39.78372955 34.70201035 39.79405212 33.84254303 39.8046875 32.95703125 C39.8075174 32.0734343 39.81034729 31.18983734 39.81326294 30.27946472 C39.82445903 27.45700546 39.84956249 24.63486338 39.875 21.8125 C39.88503054 19.89909312 39.89415626 17.98568127 39.90234375 16.07226562 C39.92439649 11.38138818 39.95892238 6.69074787 40 2 C39.01 2 38.02 2 37 2 C37 17.84 37 33.68 37 50 C31.06 50 25.12 50 19 50 C19 49.34 19 48.68 19 48 C18.67 48.66 18.34 49.32 18 50 C12.72 50 7.44 50 2 50 C2.00523682 48.55117432 2.01047363 47.10234863 2.01586914 45.60961914 C2.03391273 40.25545871 2.04542965 34.90130099 2.05493164 29.54711914 C2.05997333 27.22582549 2.06680651 24.90453503 2.07543945 22.58325195 C2.08751225 19.25471205 2.09322979 15.92621398 2.09765625 12.59765625 C2.10281754 11.55287613 2.10797882 10.50809601 2.11329651 9.43165588 C2.11340981 7.99027504 2.11340981 7.99027504 2.11352539 6.51977539 C2.115746 5.66928116 2.11796661 4.81878693 2.12025452 3.94252014 C2.21480284 1.99411455 2.21480284 1.99411455 1 1 C1 17.5 1 34 1 51 C0.67 51 0.34 51 0 51 C0 34.17 0 17.34 0 0 Z " fill="#095AA9" transform="translate(733,142)"/>
<path d="M0 0 C102.96 0 205.92 0 312 0 C312 17.49 312 34.98 312 53 C210.03 53 108.06 53 3 53 C3 52.67 3 52.34 3 52 C104.31 52 205.62 52 310 52 C309.67 35.5 309.34 19 309 2 C207.36 2 105.72 2 1 2 C1 16.52 1 31.04 1 46 C0.67 46 0.34 46 0 46 C0 30.82 0 15.64 0 0 Z " fill="#2865AC" transform="translate(149,90)"/>
<path d="M0 0 C5.61 0 11.22 0 17 0 C17 6.27 17 12.54 17 19 C29.87 19.495 29.87 19.495 43 20 C43 20.33 43 20.66 43 21 C35.08 21 27.16 21 19 21 C19 21.66 19 22.32 19 23 C26.92 23 34.84 23 43 23 C43 23.66 43 24.32 43 25 C35.08 25 27.16 25 19 25 C19 26.32 19 27.64 19 29 C19.74161377 28.98952637 20.48322754 28.97905273 21.24731445 28.96826172 C24.60234193 28.92672804 27.95731533 28.90068211 31.3125 28.875 C32.47974609 28.85824219 33.64699219 28.84148437 34.84960938 28.82421875 C35.96787109 28.81777344 37.08613281 28.81132812 38.23828125 28.8046875 C39.26993408 28.79421387 40.30158691 28.78374023 41.36450195 28.77294922 C44 29 44 29 47 31 C37.1 31.33 27.2 31.66 17 32 C16.67 38.27 16.34 44.54 16 51 C10.72 51 5.44 51 0 51 C0 34.17 0 17.34 0 0 Z " fill="#095BAA" transform="translate(957,142)"/>
<path d="M0 0 C20.46 0 40.92 0 62 0 C62 4.95 62 9.9 62 15 C41.54 15 21.08 15 0 15 C0 10.05 0 5.1 0 0 Z " fill="#1460AE" transform="translate(1031,160)"/>
<path d="M0 0 C20.46 0 40.92 0 62 0 C62 4.95 62 9.9 62 15 C41.54 15 21.08 15 0 15 C0 10.05 0 5.1 0 0 Z " fill="#155EAB" transform="translate(1031,141)"/>
<path d="M0 0 C20.46 0 40.92 0 62 0 C62 4.62 62 9.24 62 14 C41.54 14 21.08 14 0 14 C0 9.38 0 4.76 0 0 Z " fill="#0B5BA9" transform="translate(1031,180)"/>
<path d="M0 0 C0 17.49 0 34.98 0 53 C-0.66 53 -1.32 53 -2 53 C-2.495 53.99 -2.495 53.99 -3 55 C-5.5625 55.625 -5.5625 55.625 -8 56 C-8 55.34 -8 54.68 -8 54 C-8.76199203 54.00222061 -9.52398407 54.00444122 -10.30906677 54.00672913 C-17.47551712 54.02673157 -24.64195401 54.04197388 -31.80842495 54.05181217 C-35.49314498 54.05704008 -39.17784203 54.06413605 -42.86254883 54.07543945 C-46.41570831 54.08627162 -49.96884563 54.09227753 -53.52202034 54.09487724 C-54.88045666 54.0967309 -56.23889171 54.10035038 -57.59731865 54.10573006 C-59.49382223 54.11294475 -61.39034793 54.11340809 -63.28686523 54.11352539 C-64.90902199 54.11685631 -64.90902199 54.11685631 -66.56394958 54.12025452 C-69 54 -69 54 -70 53 C-70.23427778 50.98405418 -70.41336124 48.961526 -70.5625 46.9375 C-70.64628906 45.83277344 -70.73007813 44.72804687 -70.81640625 43.58984375 C-70.87699219 42.73519531 -70.93757813 41.88054687 -71 41 C-73.29575603 43.29575603 -73.32339599 44.00842525 -73.625 47.125 C-73.74875 48.40375 -73.8725 49.6825 -74 51 C-74.33 51 -74.66 51 -75 51 C-75.33 45.72 -75.66 40.44 -76 35 C-75.01 34.505 -75.01 34.505 -74 34 C-73.34786708 31.97536745 -73.34786708 31.97536745 -73 30 C-72.34 30.33 -71.68 30.66 -71 31 C-70.67 27.04 -70.34 23.08 -70 19 C-69.67 19 -69.34 19 -69 19 C-69 23.95 -69 28.9 -69 34 C-48.54 34 -28.08 34 -7 34 C-7 29.05 -7 24.1 -7 19 C-8.485 18.505 -8.485 18.505 -10 18 C-10 17.34 -10 16.68 -10 16 C-9.01 16 -8.02 16 -7 16 C-7 10.72 -7 5.44 -7 0 C-4 -1 -4 -1 0 0 Z M-69 39 C-69 43.62 -69 48.24 -69 53 C-48.54 53 -28.08 53 -7 53 C-7 48.38 -7 43.76 -7 39 C-27.46 39 -47.92 39 -69 39 Z " fill="#F4F7F8" transform="translate(1100,141)"/>
<path d="M0 0 C10.23 0 20.46 0 31 0 C31 7.92 31 15.84 31 24 C20.77 24 10.54 24 0 24 C0 16.08 0 8.16 0 0 Z " fill="#F5F7FB" transform="translate(1119,156)"/>
<path d="M0 0 C6.27 0 12.54 0 19 0 C19 15.18 19 30.36 19 46 C20.65 46 22.3 46 24 46 C24 30.82 24 15.64 24 0 C30.6 0 37.2 0 44 0 C44 15.18 44 30.36 44 46 C45.65 46 47.3 46 49 46 C49 46.33 49 46.66 49 47 C47.35 47 45.7 47 44 47 C44.495 48.98 44.495 48.98 45 51 C52.59 51 60.18 51 68 51 C68 51.66 68 52.32 68 53 C45.56 53 23.12 53 0 53 C0 35.51 0 18.02 0 0 Z M1 1 C1 17.83 1 34.66 1 52 C1.33 52 1.66 52 2 52 C2 35.5 2 19 2 2 C3 3 3 3 3.12025452 4.94252014 C3.11803391 5.79301437 3.11581329 6.64350861 3.11352539 7.51977539 C3.11341209 8.96115623 3.11341209 8.96115623 3.11329651 10.43165588 C3.10813522 11.476436 3.10297394 12.52121613 3.09765625 13.59765625 C3.09553383 15.19364906 3.09553383 15.19364906 3.09336853 16.82188416 C3.08775064 20.23545083 3.07519511 23.648953 3.0625 27.0625 C3.05748731 29.37044176 3.052924 31.67838455 3.04882812 33.98632812 C3.0377754 39.65757426 3.02101987 45.32878253 3 51 C4.14339844 51 5.28679688 51 6.46484375 51 C16.9765625 51 27.48828125 51 38 51 C38 35.16 38 19.32 38 3 C38.99 3 39.98 3 41 3 C40.98952637 4.1960083 40.97905273 5.3920166 40.96826172 6.62426758 C40.93208595 11.05783093 40.90910834 15.49138121 40.89013672 19.92504883 C40.88007361 21.84466749 40.86642184 23.76427081 40.84912109 25.68383789 C40.82488636 28.44160752 40.81352008 31.19917464 40.8046875 33.95703125 C40.79436493 34.81649857 40.78404236 35.67596588 40.77340698 36.56147766 C40.77325592 37.36208115 40.77310486 38.16268463 40.77294922 38.98754883 C40.76628738 40.04344963 40.76628738 40.04344963 40.75949097 41.12068176 C40.90112227 43.3333238 40.90112227 43.3333238 43 46 C43 31.15 43 16.3 43 1 C37.06 1 31.12 1 25 1 C25 16.18 25 31.36 25 47 C23.02 46.67 21.04 46.34 19 46 C18.67 31.15 18.34 16.3 18 1 C12.39 1 6.78 1 1 1 Z " fill="#2E6BB3" transform="translate(732,141)"/>
<path d="M0 0 C17.49 0 34.98 0 53 0 C53 52.47 53 104.94 53 159 C52.34 159 51.68 159 51 159 C51 107.19 51 55.38 51 2 C34.83 2 18.66 2 2 2 C1.67 53.48 1.34 104.96 1 158 C0.67 158 0.34 158 0 158 C0 105.86 0 53.72 0 0 Z " fill="#2863A9" transform="translate(33,90)"/>
<path d="M0 0 C0.99 0.33 1.98 0.66 3 1 C3 53.8 3 106.6 3 161 C4.32 161.33 5.64 161.66 7 162 C5.00045254 162.04254356 2.99958364 162.04080783 1 162 C-0.81084597 160.18915403 -0.1445299 157.39588831 -0.15821838 154.9573822 C-0.1680072 153.64339951 -0.17779602 152.32941681 -0.18788147 150.97561646 C-0.19378645 149.5057987 -0.19959684 148.03598057 -0.20532227 146.56616211 C-0.21489527 145.02908562 -0.22490499 143.4920118 -0.23532104 141.9549408 C-0.26243889 137.76920008 -0.28341107 133.58344801 -0.30332303 129.39766765 C-0.32514031 125.02807576 -0.35254976 120.65851915 -0.37937927 116.28895569 C-0.42936393 108.0087551 -0.47428126 99.728535 -0.51740164 91.44829613 C-0.56672478 82.02400336 -0.62166111 72.59974598 -0.67708123 63.1754874 C-0.79098986 43.78369109 -0.89780946 24.39186142 -1 5 C-0.34 5 0.32 5 1 5 C0.67 3.35 0.34 1.7 0 0 Z " fill="#E2E9F4" transform="translate(521,88)"/>
<path d="M0 0 C2.31 0 4.62 0 7 0 C7 17.49 7 34.98 7 53 C13.27 53 19.54 53 26 53 C26 53.33 26 53.66 26 54 C22.04243356 54.22515501 18.08402412 54.42727348 14.125 54.625 C12.99707031 54.68945312 11.86914062 54.75390625 10.70703125 54.8203125 C9.63066406 54.871875 8.55429687 54.9234375 7.4453125 54.9765625 C6.45031738 55.02893066 5.45532227 55.08129883 4.43017578 55.13525391 C2 55 2 55 0 53 C-0.1953125 49.7421875 -0.1953125 49.7421875 -0.125 45.875 C-0.10695313 44.59367187 -0.08890625 43.31234375 -0.0703125 41.9921875 C-0.04710937 41.00476563 -0.02390625 40.01734375 0 39 C0.33 39 0.66 39 1 39 C1.495 41.475 1.495 41.475 2 44 C3.30661495 42.91891551 3.30661495 42.91891551 3.11352539 40.31616211 C3.10828857 39.14835205 3.10305176 37.98054199 3.09765625 36.77734375 C3.09443359 35.51728516 3.09121094 34.25722656 3.08789062 32.95898438 C3.07953403 31.61848891 3.07106907 30.27799412 3.0625 28.9375 C3.0574866 27.59310058 3.05292342 26.2486994 3.04882812 24.90429688 C3.03699488 21.60282059 3.02050971 18.30143197 3 15 C2.54584717 15.48968262 2.09169434 15.97936523 1.6237793 16.48388672 C-2.43971329 18.8319177 -6.37311177 18.34921174 -10.98046875 18.2578125 C-11.94906326 18.25119598 -12.91765778 18.24457947 -13.91560364 18.23776245 C-17.00655961 18.21436535 -20.09679902 18.17063161 -23.1875 18.125 C-26.28882564 18.0899947 -29.39011364 18.05922585 -32.49153137 18.03366089 C-34.42135589 18.0166153 -36.35113724 17.99341849 -38.2808075 17.96365356 C-39.14873428 17.95389496 -40.01666107 17.94413635 -40.91088867 17.93408203 C-41.67825851 17.92281281 -42.44562836 17.91154358 -43.23625183 17.89993286 C-45.02712983 17.80515723 -45.02712983 17.80515723 -46 19 C-46.10007008 21.82256491 -46.13875598 24.6152319 -46.125 27.4375 C-46.12886719 28.22705078 -46.13273438 29.01660156 -46.13671875 29.83007812 C-46.24132469 34.04870745 -46.24132469 34.04870745 -45 38 C-45.99 38 -46.98 38 -48 38 C-48.33 30.41 -48.66 22.82 -49 15 C-32.83 15 -16.66 15 0 15 C0 10.05 0 5.1 0 0 Z " fill="#F9FCF9" transform="translate(949,141)"/>
<path d="M0 0 C9.57 0 19.14 0 29 0 C29 3.96 29 7.92 29 12 C19.43 12 9.86 12 0 12 C0 8.04 0 4.08 0 0 Z " fill="#FBFCFB" transform="translate(825,156)"/>
<path d="M0 0 C1.65 0 3.3 0 5 0 C5 17.49 5 34.98 5 53 C27.44 53 49.88 53 73 53 C73 53.33 73 53.66 73 54 C48.91 54.33 24.82 54.66 0 55 C-0.66 53.68 -1.32 52.36 -2 51 C-1.34 51 -0.68 51 0 51 C0 34.17 0 17.34 0 0 Z " fill="#E1E8F4" transform="translate(727,141)"/>
<path d="M0 0 C2 3.75 2 3.75 2 6 C-99.97 6 -201.94 6 -307 6 C-307 5.67 -307 5.34 -307 5 C-206.02 4.67 -105.04 4.34 -1 4 C-0.67 2.68 -0.34 1.36 0 0 Z " fill="#035CB4" transform="translate(457,136)"/>
<path d="M0 0 C-0.66 0 -1.32 0 -2 0 C-2 15.84 -2 31.68 -2 48 C17.47 48 36.94 48 57 48 C57 45.36 57 42.72 57 40 C57.66 40 58.32 40 59 40 C59.495 44.455 59.495 44.455 60 49 C37.89 49.33 15.78 49.66 -7 50 C-7 33.5 -7 17 -7 0 C-3.86650268 -1.04449911 -3.01031744 -0.93423645 0 0 Z " fill="#055BAF" transform="translate(888,144)"/>
<path d="M0 0 C6.27 0 12.54 0 19 0 C19 6.27 19 12.54 19 19 C28.9 19 38.8 19 49 19 C49 12.73 49 6.46 49 0 C55.27 0 61.54 0 68 0 C68 17.49 68 34.98 68 53 C61.73 53 55.46 53 49 53 C49.495 52.01 49.495 52.01 50 51 C55.28 51.33 60.56 51.66 66 52 C65.67 35.83 65.34 19.66 65 3 C60.71 2.67 56.42 2.34 52 2 C51.34 1.67 50.68 1.34 50 1 C50 7.27 50 13.54 50 20 C39.44 20 28.88 20 18 20 C18 13.73 18 7.46 18 1 C12.06 1 6.12 1 0 1 C0 0.67 0 0.34 0 0 Z " fill="#3F6FB5" transform="translate(956,141)"/>
<path d="M0 0 C1.01037827 0.00222061 2.02075653 0.00444122 3.06175232 0.00672913 C4.77341331 0.00684242 4.77341331 0.00684242 6.51965332 0.00695801 C7.76129745 0.01211929 9.00294159 0.01728058 10.2822113 0.02259827 C12.17785072 0.02472069 12.17785072 0.02472069 14.11178589 0.02688599 C17.47705394 0.0315487 20.84225495 0.04053972 24.20750427 0.05158997 C27.63930175 0.06180606 31.07110614 0.06638403 34.50291443 0.07142639 C41.2405633 0.08248071 47.9781803 0.09923742 54.71580505 0.12025452 C54.38580505 1.44025452 54.05580505 2.76025452 53.71580505 4.12025452 C35.23580505 4.12025452 16.75580505 4.12025452 -2.28419495 4.12025452 C-2.61419495 3.13025452 -2.94419495 2.14025452 -3.28419495 1.12025452 C-2.28419495 0.12025452 -2.28419495 0.12025452 0 0 Z " fill="#FBFDFB" transform="translate(1034.284194946289,174.87974548339844)"/>
<path d="M0 0 C0.33 0 0.66 0 1 0 C1 16.83 1 33.66 1 51 C6.28 51 11.56 51 17 51 C16.98839844 49.64003906 16.97679687 48.28007812 16.96484375 46.87890625 C16.95546738 45.1067722 16.94636702 43.33463667 16.9375 41.5625 C16.92912109 40.66466797 16.92074219 39.76683594 16.91210938 38.84179688 C16.90727539 37.56079102 16.90727539 37.56079102 16.90234375 36.25390625 C16.89448853 35.06776733 16.89448853 35.06776733 16.88647461 33.85766602 C17 32 17 32 18 31 C20.3756852 30.9116033 22.72208674 30.88469695 25.09765625 30.90234375 C26.16094398 30.90446617 26.16094398 30.90446617 27.24571228 30.90663147 C29.51801712 30.91224557 31.79022475 30.92480037 34.0625 30.9375 C35.59960796 30.94251319 37.13671745 30.94707641 38.67382812 30.95117188 C42.44928667 30.9613703 46.22453404 30.98094268 50 31 C50 37.27 50 43.54 50 50 C49.67 50 49.34 50 49 50 C49 44.39 49 38.78 49 33 C39.1 33 29.2 33 19 33 C19 39.27 19 45.54 19 52 C12.73 52 6.46 52 0 52 C0 34.84 0 17.68 0 0 Z " fill="#2664AA" transform="translate(956,142)"/>
<path d="M0 0 C0.99 0 1.98 0 3 0 C3 17.49 3 34.98 3 53 C1 51 1 51 0.75949097 48.93722534 C0.76393219 48.08895172 0.76837341 47.2406781 0.77294922 46.36669922 C0.77310028 45.40585419 0.77325134 44.44500916 0.77340698 43.45504761 C0.78372955 42.41542877 0.79405212 41.37580994 0.8046875 40.3046875 C0.80893234 38.71081711 0.80893234 38.71081711 0.81326294 37.08474731 C0.82448361 33.68138501 0.84959163 30.27828314 0.875 26.875 C0.88502736 24.57161838 0.89415363 22.26823264 0.90234375 19.96484375 C0.92442907 14.30980655 0.95792511 8.65492187 1 3 C0.34 3 -0.32 3 -1 3 C-0.67 2.01 -0.34 1.02 0 0 Z M-3 3 C-2.01 3.495 -2.01 3.495 -1 4 C-1.33 19.51 -1.66 35.02 -2 51 C-2.33 51 -2.66 51 -3 51 C-3 35.16 -3 19.32 -3 3 Z " fill="#E5E9F1" transform="translate(804,141)"/>
<path d="M0 0 C1.65 0 3.3 0 5 0 C5 4.62 5 9.24 5 14 C-16.78 14 -38.56 14 -61 14 C-61 13.67 -61 13.34 -61 13 C-39.88 12.67 -18.76 12.34 3 12 C3 9.36 3 6.72 3 4 C2.34 4 1.68 4 1 4 C1 6.64 1 9.28 1 12 C0.67 12 0.34 12 0 12 C0 9.03 0 6.06 0 3 C-13.86 3 -27.72 3 -42 3 C-42 2.34 -42 1.68 -42 1 C-28.14 1.33 -14.28 1.66 0 2 C0 1.34 0 0.68 0 0 Z " fill="#1A5DA5" transform="translate(944,180)"/>
<path d="M0 0 C0.33 0 0.66 0 1 0 C1.33 6.27 1.66 12.54 2 19 C22.13 19 42.26 19 63 19 C63 19.33 63 19.66 63 20 C42.54 20 22.08 20 1 20 C1 24.62 1 29.24 1 34 C0.67 34 0.34 34 0 34 C-0.33 30.04 -0.66 26.08 -1 22 C-3.29575603 24.29575603 -3.32339599 25.00842525 -3.625 28.125 C-3.74875 29.40375 -3.8725 30.6825 -4 32 C-4.33 32 -4.66 32 -5 32 C-5.33 26.72 -5.66 21.44 -6 16 C-5.34 15.67 -4.68 15.34 -4 15 C-3.34786708 12.97536745 -3.34786708 12.97536745 -3 11 C-2.34 11.33 -1.68 11.66 -1 12 C-0.67 8.04 -0.34 4.08 0 0 Z " fill="#D1DBF0" transform="translate(1030,160)"/>
<path d="M0 0 C20.13 0 40.26 0 61 0 C61 9 61 9 60 13 C59.01 12.67 58.02 12.34 57 12 C57.66 12 58.32 12 59 12 C58.7215625 11.195625 58.7215625 11.195625 58.4375 10.375 C58 8 58 8 59 2 C39.53 2 20.06 2 0 2 C0 1.34 0 0.68 0 0 Z " fill="#0B5CA4" transform="translate(1032,161)"/>
<path d="M0 0 C0.33 0 0.66 0 1 0 C1 17.49 1 34.98 1 53 C7.27 53 13.54 53 20 53 C20 53.33 20 53.66 20 54 C16.04243356 54.22515501 12.08402412 54.42727348 8.125 54.625 C6.99707031 54.68945312 5.86914062 54.75390625 4.70703125 54.8203125 C3.63066406 54.871875 2.55429687 54.9234375 1.4453125 54.9765625 C0.45031738 55.02893066 -0.54467773 55.08129883 -1.56982422 55.13525391 C-4 55 -4 55 -6 53 C-6.1953125 49.7421875 -6.1953125 49.7421875 -6.125 45.875 C-6.10695313 44.59367187 -6.08890625 43.31234375 -6.0703125 41.9921875 C-6.04710937 41.00476563 -6.02390625 40.01734375 -6 39 C-5.67 39 -5.34 39 -5 39 C-4.67 40.65 -4.34 42.3 -4 44 C-3.01 43.505 -3.01 43.505 -2 43 C-2 45.97 -2 48.94 -2 52 C-1.34 52 -0.68 52 0 52 C0 34.84 0 17.68 0 0 Z " fill="#CCD5EC" transform="translate(955,141)"/>
<path d="M0 0 C9.57 0 19.14 0 29 0 C29 3.96 29 7.92 29 12 C19.43 12 9.86 12 0 12 C0 8.04 0 4.08 0 0 Z M1 1 C1 4.3 1 7.6 1 11 C4.62504899 11.02687433 8.24990046 11.04677776 11.875 11.0625 C12.90753906 11.07087891 13.94007813 11.07925781 15.00390625 11.08789062 C15.99003906 11.09111328 16.97617187 11.09433594 17.9921875 11.09765625 C18.90339355 11.10289307 19.81459961 11.10812988 20.75341797 11.11352539 C23.03687509 11.14885565 23.03687509 11.14885565 25 10 C25.020625 8.700625 25.04125 7.40125 25.0625 6.0625 C25.07410156 5.33160156 25.08570313 4.60070312 25.09765625 3.84765625 C25.20561184 1.98267859 25.20561184 1.98267859 24 1 C22.29227642 0.91286169 20.58101351 0.89299993 18.87109375 0.90234375 C17.83662109 0.90556641 16.80214844 0.90878906 15.73632812 0.91210938 C14.64771484 0.92048828 13.55910156 0.92886719 12.4375 0.9375 C11.34501953 0.94201172 10.25253906 0.94652344 9.12695312 0.95117188 C6.41794568 0.9630016 3.7089662 0.98093769 1 1 Z " fill="#DCE3F0" transform="translate(825,156)"/>
<path d="M0 0 C0.66 0 1.32 0 2 0 C2 0.66 2 1.32 2 2 C1.34 2 0.68 2 0 2 C0 1.34 0 0.68 0 0 Z M-5 -12 C-4.67 -12 -4.34 -12 -4 -12 C-3.505 -5.565 -3.505 -5.565 -3 1 C-2.01 1.33 -1.02 1.66 0 2 C-0.33 2.66 -0.66 3.32 -1 4 C-3.5625 4.625 -3.5625 4.625 -6 5 C-6 4.34 -6 3.68 -6 3 C-26.13 3 -46.26 3 -67 3 C-67 2.67 -67 2.34 -67 2 C-46.54 2 -26.08 2 -5 2 C-5 -2.62 -5 -7.24 -5 -12 Z " fill="#AFC7E9" transform="translate(1098,192)"/>
<path d="M0 0 C6.27 0 12.54 0 19 0 C19 0.66 19 1.32 19 2 C10.585 2.495 10.585 2.495 2 3 C1.67 16.2 1.34 29.4 1 43 C0.67 43 0.34 43 0 43 C0 28.81 0 14.62 0 0 Z " fill="#1555B6" transform="translate(781,141)"/>
<path d="M0 0 C0.33 0.66 0.66 1.32 1 2 C7.27 2 13.54 2 20 2 C14.41039566 6.47168348 14.41039566 6.47168348 10.375 6.125 C6.73207793 5.83903683 6.24560855 5.83626097 3 8 C3 7.01 3 6.02 3 5 C1.68 5.33 0.36 5.66 -1 6 C-1.042721 4.33388095 -1.04063832 2.66617115 -1 1 C-0.67 0.67 -0.34 0.34 0 0 Z " fill="#E1E7F1" transform="translate(705,192)"/>
<path d="M0 0 C6.27 0 12.54 0 19 0 C19 0.66 19 1.32 19 2 C9.595 2.495 9.595 2.495 0 3 C0 2.01 0 1.02 0 0 Z " fill="#3567AE" transform="translate(781,141)"/>
<path d="M0 0 C6.27 0 12.54 0 19 0 C19 0.33 19 0.66 19 1 C16.36 1 13.72 1 11 1 C11 1.66 11 2.32 11 3 C7.37 3 3.74 3 0 3 C0 2.01 0 1.02 0 0 Z " fill="#D6E1F1" transform="translate(1005,194)"/>
<path d="M0 0 C3.875 0.875 3.875 0.875 5 2 C5.04063832 3.66617115 5.042721 5.33388095 5 7 C4.67 6.34 4.34 5.68 4 5 C-2.27 5 -8.54 5 -15 5 C-15 4.67 -15 4.34 -15 4 C-10.05 3.67 -5.1 3.34 0 3 C0 2.01 0 1.02 0 0 Z " fill="#F2F9FA" transform="translate(971,136)"/>
<path d="M0 0 C0.33 0 0.66 0 1 0 C1.33 4.29 1.66 8.58 2 13 C2.99 13.33 3.98 13.66 5 14 C4.67 14.66 4.34 15.32 4 16 C2.35 16.33 0.7 16.66 -1 17 C-0.67 11.39 -0.34 5.78 0 0 Z M5 12 C5.66 12 6.32 12 7 12 C7 12.66 7 13.32 7 14 C6.34 14 5.68 14 5 14 C5 13.34 5 12.68 5 12 Z " fill="#D1DBEB" transform="translate(1093,180)"/>
<path d="M0 0 C6.93 0.495 6.93 0.495 14 1 C14 1.33 14 1.66 14 2 C13.28972656 2.04898438 12.57945312 2.09796875 11.84765625 2.1484375 C10.46900391 2.26058594 10.46900391 2.26058594 9.0625 2.375 C8.14597656 2.44460937 7.22945312 2.51421875 6.28515625 2.5859375 C5.53105469 2.72257813 4.77695312 2.85921875 4 3 C3.67 3.66 3.34 4.32 3 5 C2.34 5 1.68 5 1 5 C0.67 3.35 0.34 1.7 0 0 Z " fill="#FBF9F5" transform="translate(650,195)"/>
</svg>
