<svg xmlns="http://www.w3.org/2000/svg" viewBox="0 0 243.49 68.71"><style>.st0{fill:#fff}</style><path class="st0" d="M242.53.51h-46.65c-.07 5.46-.79 10.99-1.47 16.58h3.14c1.53-5.89 3.36-6.92 9.86-6.92h3.21v37.15c0 3.82-2.3 4.25-4.66 4.25v3.21c4.27-.26 8.55-.5 12.9-.5 4.42 0 8.85.24 13.28.5v-3.21c-2.82 0-4.88-.85-4.88-4.25V10.17h3.51c6.09 0 8.52 1.48 9.69 6.92h3.03c-.56-5.42-.76-11.07-.96-16.58zM84.34.51H37.7c-.07 5.46-.78 10.99-1.48 16.58h3.15c1.53-5.89 3.37-6.92 9.86-6.92h3.22v37.15c0 3.82-2.29 4.25-4.67 4.25v3.21c4.28-.26 8.55-.5 12.9-.5 4.43 0 8.85.24 13.28.5v-3.21c-2.83 0-4.88-.85-4.88-4.25V10.17h3.51c6.1 0 8.53 1.48 9.69 6.92h3.03c-.57-5.42-.77-11.07-.97-16.58zM.68 66.91c-.3-.59-.68-1.16-.68-1.16 10.97-3.7 12.16-10.11 12.16-15.46V9.5c0-5.34-2.38-6.28-4.93-6.28V0c3.7.26 8.33.51 13.19.51C25.04.51 28.9.26 32.76 0v3.22c-1.85 0-3.78.35-3.78 3.58v36.88c0 15.01-11.82 21.82-27.61 25.04 0-.01-.28-1.02-.69-1.81zm132.63-28.92c-.31 5.86-3.32 7.64-8.1 7.64h-14.64V8.65h14.8c4.47 0 6.32 3.39 6.47 6.53h2.47c-.15-3.64-.39-7.38-.61-11.54V.51H89.98v3.23c1.7 0 3.78.34 3.78 3.56v40.2c0 3.23-2.08 3.56-3.78 3.56v3.23h44.95c.23-5.43.78-10.86 1.16-16.29h-2.78z"/><path d="M140.01 26.41s-14.73 5.15-32.91 5.15c-18.17 0-32.9-5.15-32.9-5.15s14.73-5.14 32.9-5.14c18.18 0 32.91 5.14 32.91 5.14z" fill="#e30613"/><path class="st0" d="M189.8 46.14c-3.96-8.06-8.58-17.52-12.13-24.52l9.9-15.02c2.28-2.8 3.5-3.38 6.19-3.38V0c-4.03.34-7.02.51-9.85.51-3.9 0-9.05-.25-12.95-.51v3.22c1.53 0 3.05.68 3.05 2.47 0 1.78-.59 4.25-13.26 19.95h-.17V6.79c0-3.23 1.9-3.58 3.74-3.58V0c-3.81.34-7.64.51-12.22.51-4.12 0-8.24-.25-11.91-.51v3.22c1.68 0 3.74.35 3.74 3.58V48c0 3.21-2.06 3.57-3.74 3.57v3.21c3.66-.26 7.79-.5 11.91-.5 4.58 0 8.41.24 12.22.5v-3.21c-1.84 0-3.74-.35-3.74-3.57V26.14h.17c4.87 8.73 10.2 19.9 13.81 28.64 4.68-.45 7.66-.5 11.64-.5 3.4 0 6.23.16 10.42.5v-3.21c-3.04 0-5.33-2.4-6.82-5.43z"/></svg>