<svg id="Layer_1" data-name="Layer 1" xmlns="http://www.w3.org/2000/svg" viewBox="0 0 150 97.85"><defs><style>.cls-1{fill:#006ab4;}.cls-2{fill:#f58722;}.cls-3{fill:#221e1f;}</style></defs><path class="cls-1" d="M33.83,49.17c0,.1-2.74,7.74-2.74,7.74s-2.5,3.76-2.5,3.76-.39,2.08-.39,2.08-2.08,2.65-2.08,2.65l-3.46-1.19c0,.11-.3-3.48-.3-3.48S19.5,49.07,19.5,49.07a8.3,8.3,0,0,1-1.35.13c-3,.32-5-3.06-6.27-5.43,0,0-2.62-3.25-2.62-3.25s-.18-2-.18-2,8.28-3.73,8.28-3.73-.6-18.95-.6-18.95l2.08-3.19,3.76-.35c-.08.12,1.48.88,1.48.88s4.87.57,4.87.57,3,1.77,3,1.77S31.9,26,31.9,26L58.57,10.51c0,.09,8-.73,8-.73a18.85,18.85,0,0,0-.78,2.09c0,.1.24,3,.24,3l-2.8,6.29c-.09.05-3.52,3.29-3.52,3.29s-2.53,3.79-2.53,3.79l-3.13,2.17c0,.13-13.19,7.24-13.19,7.24a4.7,4.7,0,0,1-.84.6c-.11.12-1.32,1.64-1.32,1.64s-1.24,2.56-1.24,2.56-3.91,3.86-3.91,3.86.24,2.9.24,2.9"/><path class="cls-1" d="M91.63,64.84c0,.1-3.31-.63-3.31-.63s-10-.1-10-.1-2.62,2.72-2.62,2.72-3.79.91-3.79.91l-3.76-.22c-.08,0-14.75-6.63-14.75-6.63s-3.91-.6-3.91-.6S39.28,52.2,39.28,52.2s-.88-4-.88-4a10.17,10.17,0,0,1-.14-1.86c-.09,0,1.14-3.6,1.14-3.6l4-3.92c16.49,9.56,32.22,16,48.53,23.5,0,.12-.27,2.5-.27,2.5"/><path class="cls-1" d="M136.34,18.52a5.27,5.27,0,0,0-5.26,5.26V36L112.75,18.52h-4.31a3.19,3.19,0,0,0-3.19,3.2V47.89h3.19a5.26,5.26,0,0,0,5.26-5.25s0,0,0,0V29.45l19.1,18.44h3.35l.16,0a3.19,3.19,0,0,0,3.19-3.2c0-.05,0-.11,0-.17v-26Z"/><path class="cls-1" d="M101.71,45.22V42.4H78.36v-7H98a2.68,2.68,0,0,0,2.68-2.67.46.46,0,0,1,0-.14V29.92H78.36v-6H98.62a2.66,2.66,0,0,0,2.67-2.67V18.52H73a3.23,3.23,0,0,0-3.23,3.23v23a3.23,3.23,0,0,0,2.61,3.16H99a2.67,2.67,0,0,0,2.68-2.67"/><polygon class="cls-2" points="139.53 84.7 9.08 89.08 12.12 84.7 139.53 84.7"/><path class="cls-3" d="M21.13,76H24l-.13.7H21.79l-.35,1.62h1.95l-.15.7h-2l-.54,2.53h-.81Z"/><path class="cls-3" d="M26.28,77.38a1.66,1.66,0,0,1,1.8,1.77,2.24,2.24,0,0,1-2.27,2.47A1.66,1.66,0,0,1,24,79.82,2.25,2.25,0,0,1,26.28,77.38ZM25.81,81c.84,0,1.48-1,1.48-1.87a1.07,1.07,0,0,0-1-1.17c-1,0-1.48,1-1.48,1.89A1,1,0,0,0,25.81,81Z"/><path class="cls-3" d="M31.9,78.18a1.54,1.54,0,0,0-.72-.2,1.67,1.67,0,0,0-1.56,1.84c0,.75.38,1.2,1.1,1.2a2.63,2.63,0,0,0,.82-.18l-.14.69a2.83,2.83,0,0,1-.78.09,1.59,1.59,0,0,1-1.79-1.69A2.3,2.3,0,0,1,31,77.38a3,3,0,0,1,1.05.16Z"/><path class="cls-3" d="M35.92,80.91c0,.16-.08.38-.12.62h-.7l.13-.65h0a1.55,1.55,0,0,1-1.39.74,1.2,1.2,0,0,1-1.35-1.27,3.66,3.66,0,0,1,.1-.74L33,77.47h.75l-.5,2.43a1.89,1.89,0,0,0,0,.38A.7.7,0,0,0,34,81c.92,0,1.37-1,1.48-1.5l.43-2h.74Z"/><path class="cls-3" d="M39.71,78.19A2.11,2.11,0,0,0,38.9,78c-.33,0-.76.09-.76.49,0,.7,1.38.73,1.38,1.86A1.36,1.36,0,0,1,38,81.62a2.93,2.93,0,0,1-1.19-.19l.15-.64a2.45,2.45,0,0,0,.93.23c.4,0,.85-.17.85-.63,0-.69-1.38-.79-1.38-1.82,0-.86.85-1.19,1.52-1.19a3,3,0,0,1,1.06.22Z"/><path class="cls-3" d="M45.86,75.88a2.07,2.07,0,0,1,2.25,2.25c0,1.76-1,3.49-3.06,3.49a2.09,2.09,0,0,1-2.32-2.35A3.25,3.25,0,0,1,45.86,75.88Zm-.77,5c1.36,0,2.17-1.47,2.17-2.68,0-1.06-.47-1.66-1.43-1.66a2.49,2.49,0,0,0-2.26,2.71A1.44,1.44,0,0,0,45.09,80.92Z"/><path class="cls-3" d="M49.31,78.09c0-.16.08-.38.11-.62h.7l-.13.65h0a1.54,1.54,0,0,1,1.38-.74,1.2,1.2,0,0,1,1.35,1.27,3.66,3.66,0,0,1-.1.74l-.44,2.14h-.75L52,79.1a1.89,1.89,0,0,0,0-.38.7.7,0,0,0-.74-.74c-.92,0-1.37,1-1.48,1.5l-.42,2H48.6Z"/><path class="cls-3" d="M56.92,76h.8l-.48,2.32h2.64l.5-2.32h.78L60,81.53h-.81L59.73,79H57.09l-.53,2.53h-.81Z"/><path class="cls-3" d="M62.31,77.47h.74l-.85,4.06h-.75Zm1-.9h-.84l.17-.85h.85Z"/><path class="cls-3" d="M68,77.47l-.93,4.35a2,2,0,0,1-2.18,1.47A3.69,3.69,0,0,1,63.51,83l.17-.67a3,3,0,0,0,1.3.36,1.38,1.38,0,0,0,1.41-1.19l.11-.43h0a1.4,1.4,0,0,1-1.21.46,1.55,1.55,0,0,1-1.51-1.62c0-1.5.88-2.55,2-2.53a1.36,1.36,0,0,1,1.33.81h0l.14-.72Zm-2.52,3.45c.65,0,1.39-.51,1.39-1.83a1,1,0,0,0-1-1.11c-.86,0-1.28,1.11-1.28,1.89A.93.93,0,0,0,65.46,80.92Z"/><path class="cls-3" d="M69.71,75.57h.75L70,78h0a1.52,1.52,0,0,1,1.28-.6,1.2,1.2,0,0,1,1.35,1.27,3.66,3.66,0,0,1-.1.74l-.44,2.14h-.75l.5-2.43a3.08,3.08,0,0,0,0-.38.7.7,0,0,0-.74-.74c-.92,0-1.37,1-1.48,1.5l-.43,2h-.74Z"/><path class="cls-3" d="M79.07,76.85a1.88,1.88,0,0,0-1-.27c-.53,0-1.1.21-1.1.87,0,.93,1.89.94,1.89,2.39a1.77,1.77,0,0,1-1.91,1.78,4,4,0,0,1-1.55-.31l.25-.74a2.32,2.32,0,0,0,1.17.35c.84,0,1.2-.52,1.2-1,0-1.13-1.89-.93-1.89-2.47A1.7,1.7,0,0,1,78,75.88a3.36,3.36,0,0,1,1.33.27Z"/><path class="cls-3" d="M80,78.82c.08-.46.16-.9.21-1.35h.7l-.13.62h0a1.61,1.61,0,0,1,1.44-.71,1.42,1.42,0,0,1,1.45,1.54c0,1.49-.69,2.7-2,2.7a1.25,1.25,0,0,1-1.32-.7h0l-.48,2.28H79.1ZM81.56,81c.85,0,1.35-1,1.35-2,0-.68-.38-1-.9-1-.88,0-1.46,1-1.46,2A1,1,0,0,0,81.56,81Z"/><path class="cls-3" d="M87.52,81.46a5.34,5.34,0,0,1-1.2.16,1.64,1.64,0,0,1-1.86-1.83,2.31,2.31,0,0,1,2.21-2.41,1.41,1.41,0,0,1,1.53,1.55,4.32,4.32,0,0,1-.07.74H85.27a2,2,0,0,0,0,.25c0,.85.53,1.1,1.25,1.1a3.08,3.08,0,0,0,1.14-.25Zm-.09-2.35c0-.12,0-.21,0-.31a.77.77,0,0,0-.86-.82,1.4,1.4,0,0,0-1.24,1.13Z"/><path class="cls-3" d="M91.94,81.46a5.34,5.34,0,0,1-1.2.16,1.65,1.65,0,0,1-1.87-1.83,2.31,2.31,0,0,1,2.22-2.41,1.41,1.41,0,0,1,1.53,1.55,4.32,4.32,0,0,1-.07.74H89.69a2,2,0,0,0,0,.25c0,.85.52,1.1,1.25,1.1a3.08,3.08,0,0,0,1.14-.25Zm-.09-2.35c0-.12,0-.21,0-.31A.77.77,0,0,0,91,78a1.4,1.4,0,0,0-1.24,1.13Z"/><path class="cls-3" d="M97,80.18a13.14,13.14,0,0,0-.23,1.35h-.7c0-.19.07-.42.13-.62h0a1.39,1.39,0,0,1-1.38.71,1.53,1.53,0,0,1-1.51-1.7,2.28,2.28,0,0,1,2.1-2.54,1.37,1.37,0,0,1,1.31.76h0l.53-2.57H98ZM95.07,81c.94,0,1.37-1.17,1.37-1.93a1,1,0,0,0-1-1.11c-.88,0-1.34,1.12-1.34,1.89S94.39,81,95.07,81Z"/><path class="cls-3" d="M104.05,80a3.07,3.07,0,0,0,.66-1.5h.71a3.55,3.55,0,0,1-1,2.08l.6.93h-.88l-.27-.42a2.4,2.4,0,0,1-1.47.51c-1.16,0-1.89-.55-1.89-1.56a1.82,1.82,0,0,1,1.59-1.66,1.88,1.88,0,0,1-.43-1.2,1.46,1.46,0,0,1,1.55-1.32c.77,0,1.49.35,1.49,1.23s-.81,1.31-1.57,1.6Zm-1.59-1.08c-.52.13-1.13.43-1.13,1.09a1,1,0,0,0,1.06,1,1.79,1.79,0,0,0,1.13-.46ZM104,77.16c0-.47-.35-.67-.76-.67a.78.78,0,0,0-.83.8,1.57,1.57,0,0,0,.37.9C103.28,78.06,104,77.75,104,77.16Z"/><path class="cls-3" d="M109.47,76h3l-.13.65h-2.25l-.33,1.45a3.42,3.42,0,0,1,.45,0c1,0,1.66.47,1.66,1.51,0,1.4-1,2.07-2.37,2.07a5,5,0,0,1-1.26-.17l.13-.71a3.07,3.07,0,0,0,1.08.23c.86,0,1.62-.43,1.62-1.35,0-.68-.58-.93-1.21-.93a3.32,3.32,0,0,0-1,.17Z"/><path class="cls-3" d="M112.75,79.09h2.1l-.12.6h-2.1Z"/><path class="cls-3" d="M116.15,77.58a4.49,4.49,0,0,1,1.13-.2c.82,0,1.6.32,1.6,1.29a3.47,3.47,0,0,1-.07.63c-.15.76-.32,1.51-.42,2.23h-.69l.13-.68h0a1.49,1.49,0,0,1-1.32.77,1.15,1.15,0,0,1-1.3-1.12c0-1.15,1-1.48,2.4-1.48l.54,0a1.1,1.1,0,0,0,0-.27c0-.58-.38-.8-.93-.8a2.7,2.7,0,0,0-1.24.34Zm1.26,2c-.56,0-1.41.15-1.41.89,0,.36.31.55.67.55.75,0,1.23-.76,1.32-1.44Z"/><path class="cls-3" d="M121,79.39l-.86-1.92h.82l.6,1.47,1.22-1.47h.9l-1.72,2,1,2.11h-.84l-.7-1.59L120,81.53h-.93Z"/><path class="cls-3" d="M124.57,77.47h.75l-.86,4.06h-.75Zm1-.9h-.85l.18-.85h.84Z"/><path class="cls-3" d="M128.47,78.19a2.11,2.11,0,0,0-.81-.21c-.33,0-.76.09-.76.49,0,.7,1.38.73,1.38,1.86a1.36,1.36,0,0,1-1.53,1.29,2.84,2.84,0,0,1-1.18-.19l.14-.64a2.45,2.45,0,0,0,.93.23c.4,0,.85-.17.85-.63,0-.69-1.38-.79-1.38-1.82,0-.86.85-1.19,1.52-1.19a3,3,0,0,1,1.06.22Z"/></svg>