<?xml version="1.0" encoding="UTF-8"?>
<svg version="1.1" xmlns="http://www.w3.org/2000/svg" width="225" height="225">
<path d="M0 0 C74.25 0 148.5 0 225 0 C225 74.25 225 148.5 225 225 C150.75 225 76.5 225 0 225 C0 150.75 0 76.5 0 0 Z " fill="#FEFEFE" transform="translate(0,0)"/>
<path d="M0 0 C59.07 0 118.14 0 179 0 C179 3.3 179 6.6 179 10 C119.93 10 60.86 10 0 10 C0 6.7 0 3.4 0 0 Z " fill="#1F8FA2" transform="translate(23,122)"/>
<path d="M0 0 C1.98 0 3.96 0 6 0 C6.33 3.3 6.66 6.6 7 10 C7.3403125 9.3503125 7.680625 8.700625 8.03125 8.03125 C11.94293157 1.28984135 11.94293157 1.28984135 15.1796875 0.40234375 C17.375 0.4375 17.375 0.4375 21 1 C21.33 3.97 21.66 6.94 22 10 C22.28955566 9.28537598 22.57911133 8.57075195 22.87744141 7.83447266 C24.3390735 4.8059371 25.70431086 2.46762703 28 0 C32.17383219 -1.25467385 36.06326375 -0.95510937 40.375 -0.625 C41.49261719 -0.57988281 42.61023438 -0.53476563 43.76171875 -0.48828125 C46.5133319 -0.37069094 49.25388464 -0.20673789 52 0 C52 1.98 52 3.96 52 6 C45.07 6 38.14 6 31 6 C30.34 7.98 29.68 9.96 29 12 C23.78252127 23.31600928 23.78252127 23.31600928 19.984375 24.7734375 C18.0625 24.75 18.0625 24.75 15 24 C14.67 20.37 14.34 16.74 14 13 C13.36384766 14.19109375 13.36384766 14.19109375 12.71484375 15.40625 C12.12832031 16.4271875 11.54179688 17.448125 10.9375 18.5 C10.36902344 19.5209375 9.80054688 20.541875 9.21484375 21.59375 C8.48394531 22.3878125 7.75304688 23.181875 7 24 C4.69 24 2.38 24 0 24 C0 16.08 0 8.16 0 0 Z " fill="#0E0A0A" transform="translate(40,93)"/>
<path d="M0 0 C6.27 0 12.54 0 19 0 C19 1.98 19 3.96 19 6 C15.37 6 11.74 6 8 6 C8 6.99 8 7.98 8 9 C12.29 9 16.58 9 21 9 C21 10.98 21 12.96 21 15 C14.07 15 7.14 15 0 15 C0 10.05 0 5.1 0 0 Z " fill="#201D1D" transform="translate(144,102)"/>
<path d="M0 0 C5.94 0 11.88 0 18 0 C18 1.98 18 3.96 18 6 C14.37 6 10.74 6 7 6 C7 6.99 7 7.98 7 9 C11.29 9 15.58 9 20 9 C20 10.98 20 12.96 20 15 C13.4 15 6.8 15 0 15 C0 10.05 0 5.1 0 0 Z " fill="#191716" transform="translate(73,102)"/>
<path d="M0 0 C6.66666667 0 13.33333333 0 20 0 C20 4.62 20 9.24 20 14 C17.69 14 15.38 14 13 14 C11.35 11.03 9.7 8.06 8 5 C7.67 7.97 7.34 10.94 7 14 C4.69 14 2.38 14 0 14 C0 9.38 0 4.76 0 0 Z " fill="#120F0E" transform="translate(97,103)"/>
<path d="M0 0 C-2.97 3.96 -2.97 3.96 -6 8 C-2.7 8 0.6 8 4 8 C4 9.98 4 11.96 4 14 C-2.6 14 -9.2 14 -16 14 C-16 6 -16 6 -13.0625 3.0625 C-8.81801961 -0.83407216 -5.5642736 -0.59922946 0 0 Z " fill="#090606" transform="translate(137,103)"/>
<path d="M0 0 C2.31 0 4.62 0 7 0 C7 2.97 7 5.94 7 9 C10.63 9 14.26 9 18 9 C18 10.98 18 12.96 18 15 C12.06 15 6.12 15 0 15 C0 10.05 0 5.1 0 0 Z " fill="#151312" transform="translate(168,102)"/>
<path d="M0 0 C6.27 0 12.54 0 19 0 C19 1.65 19 3.3 19 5 C12.73 5 6.46 5 0 5 C0 3.35 0 1.7 0 0 Z " fill="#050202" transform="translate(145,94)"/>
<path d="M0 0 C6.27 0 12.54 0 19 0 C19 1.65 19 3.3 19 5 C12.73 5 6.46 5 0 5 C0 3.35 0 1.7 0 0 Z " fill="#050202" transform="translate(122,94)"/>
<path d="M0 0 C3.63 0 7.26 0 11 0 C9.515 1.485 9.515 1.485 8 3 C7.34 3 6.68 3 6 3 C6 6.63 6 10.26 6 14 C4.02 14 2.04 14 0 14 C0 9.38 0 4.76 0 0 Z " fill="#060202" transform="translate(97,103)"/>
<path d="M0 0 C1.2065625 0.0309375 1.2065625 0.0309375 2.4375 0.0625 C3.5625 2.375 3.5625 2.375 4.4375 5.0625 C3.4475 6.5475 3.4475 6.5475 2.4375 8.0625 C-0.0625 8.375 -0.0625 8.375 -2.5625 8.0625 C-3.2225 7.4025 -3.8825 6.7425 -4.5625 6.0625 C-3.83457637 0.09352625 -3.83457637 0.09352625 0 0 Z " fill="#787677" transform="translate(184.5625,92.9375)"/>
<path d="M0 0 C2.31 0 4.62 0 7 0 C7.66 1.98 8.32 3.96 9 6 C6.03 6 3.06 6 0 6 C0 4.02 0 2.04 0 0 Z " fill="#171414" transform="translate(97,93)"/>
<path d="M0 0 C1.98 0 3.96 0 6 0 C6 1.65 6 3.3 6 5 C4.02 5 2.04 5 0 5 C0 3.35 0 1.7 0 0 Z " fill="#040202" transform="translate(169,94)"/>
<path d="M0 0 C1.98 0 3.96 0 6 0 C6 1.65 6 3.3 6 5 C4.02 5 2.04 5 0 5 C0 3.35 0 1.7 0 0 Z " fill="#040202" transform="translate(111,94)"/>
<path d="M0 0 C1.65 0 3.3 0 5 0 C5 1.98 5 3.96 5 6 C4.34 5.34 3.68 4.68 3 4 C0.89179203 4.3185177 0.89179203 4.3185177 -1 5 C-0.67 3.35 -0.34 1.7 0 0 Z " fill="#A9A9A9" transform="translate(182,93)"/>
</svg>
