<svg xmlns="http://www.w3.org/2000/svg" xmlns:xlink="http://www.w3.org/1999/xlink" width="263" height="54" viewBox="0 0 263 54">
  <defs>
    <clipPath id="clip-path">
      <rect id="Rechteck_13463" data-name="Rechteck 13463" width="261.566" height="52.716" fill="none"/>
    </clipPath>
    <clipPath id="clip-zoller80-logo">
      <rect width="263" height="54"/>
    </clipPath>
  </defs>
  <g id="zoller80-logo" clip-path="url(#clip-zoller80-logo)">
    <g id="Gruppe_13537" data-name="Gruppe 13537" transform="translate(1 0.642)">
      <path id="Pfad_12767" data-name="Pfad 12767" d="M174.549.462V53.017h18.537v-7.4H182.711V.462Z" transform="translate(-113.438 -0.3)" fill="#b2b2b2"/>
      <path id="Pfad_12768" data-name="Pfad 12768" d="M239.758.462V53.017h18.536v-7.4H247.921V.462Z" transform="translate(-155.818 -0.3)" fill="#b2b2b2"/>
      <path id="Pfad_12769" data-name="Pfad 12769" d="M304.094.462V53.017H324.33v-7.4H312.256V30.055h10.713V23.14H312.256V7.859H324.33V.462Z" transform="translate(-197.629 -0.3)" fill="#b2b2b2"/>
      <g id="Gruppe_13536" data-name="Gruppe 13536">
        <g id="Gruppe_13535" data-name="Gruppe 13535" clip-path="url(#clip-path)">
          <path id="Pfad_12770" data-name="Pfad 12770" d="M394.732,18.765q0,4.422-3.656,4.421h-5.357V7.86h5.357q3.655,0,3.656,4.421Zm8.163.51V10.921q0-10.458-9.353-10.458H377.557V53.017h8.162V30.159h4.932l5.357,22.858h7.737l-5.7-23.623q4.847-2.125,4.846-10.118" transform="translate(-245.373 -0.301)" fill="#b2b2b2"/>
          <path id="Pfad_12771" data-name="Pfad 12771" d="M0,52.966,13.749,7.894H.587V.412L23.513.385,10.348,45.569H24.122v7.4Z" transform="translate(0 -0.25)" fill="#b2b2b2"/>
          <path id="Pfad_12772" data-name="Pfad 12772" d="M99.437,41.6q0,3.619-3.275,3.619H93.772q-3.706,0-3.706-3.619V11.117q0-3.619,3.619-3.619h2.046q3.7,0,3.706,3.619Zm8.273.6V10.6Q107.711,0,97.8,0H91.7q-9.912,0-9.911,10.6V42.2q0,10.515,10,10.514h5.924q10,0,10-10.514" transform="translate(-53.157)" fill="#b2b2b2"/>
          <path id="Pfad_12773" data-name="Pfad 12773" d="M566.956.464H546.744q7.576,1.131,7.577,10.375v9.089a12.254,12.254,0,0,1-1.638,6.758,12.52,12.52,0,0,1,1.638,6.847v9.049q0,10.078-9.249,10.43h23.562q-9.3-.354-9.308-10.509V10.9q0-9.3,7.631-10.436" transform="translate(-354.24 -0.302)" fill="#f0e600"/>
          <path id="Pfad_12774" data-name="Pfad 12774" d="M618.73,55.518V25.033c0-2.419-1.226-3.628-3.7-3.628H613q-3.625,0-3.625,3.628V55.518c0,2.419,1.226,3.628,3.7,3.628h2.4c2.164,0,3.264-1.209,3.264-3.628" transform="translate(-396.028 -13.911)" fill="#f0e600"/>
          <path id="Pfad_12775" data-name="Pfad 12775" d="M525.012,21.283q-3.6,0-3.6,3.607v7.958c0,2.4,1.219,3.607,3.675,3.607h2.385c2.151,0,3.245-1.2,3.245-3.607V24.89c0-2.4-1.219-3.607-3.675-3.607Z" transform="translate(-338.861 -13.832)" fill="#f0e600"/>
          <path id="Pfad_12776" data-name="Pfad 12776" d="M525.081,101.235h2.385c2.151,0,3.245-1.2,3.245-3.607V89.71c0-2.4-1.219-3.607-3.675-3.607H525.01q-3.6,0-3.6,3.607v7.918c0,2.4,1.219,3.607,3.675,3.607" transform="translate(-338.86 -55.958)" fill="#f0e600"/>
          <path id="Pfad_12777" data-name="Pfad 12777" d="M634.838.464Q642.464,1.6,642.465,10.9V42.522q-.009,10.138-9.307,10.491h39.9V.464Z" transform="translate(-411.487 -0.302)" fill="#f0e600"/>
          <path id="Pfad_12778" data-name="Pfad 12778" d="M482.831,42.564V33.533a12.5,12.5,0,0,1,1.644-6.849,12.279,12.279,0,0,1-1.644-6.774V10.839q0-9.245,7.6-10.375H474.684V53.013h17.4q-9.245-.353-9.254-10.449" transform="translate(-308.495 -0.302)" fill="#f0e600"/>
          <path id="Pfad_12779" data-name="Pfad 12779" d="M676.3,88.353h1.519v1.029h-4.061V88.353h1.5v-6.06l-1.411.124V81.389l2.456-.215Z" transform="translate(-437.875 -52.754)"/>
          <path id="Pfad_12780" data-name="Pfad 12780" d="M693.029,83.26v3.935a2.187,2.187,0,1,1-4.374,0h1.034a1.1,1.1,0,0,0,1.153,1.187c.732,0,1.153-.464,1.153-1.3V85.827a1.719,1.719,0,0,1-1.26.509,2,2,0,0,1-2.058-2.2V83.26a2.176,2.176,0,1,1,4.352,0m-1.034.882v-.87a1.08,1.08,0,0,0-1.142-1.2,1.065,1.065,0,0,0-1.142,1.2v.882a1.142,1.142,0,1,0,2.284-.012" transform="translate(-447.554 -52.67)"/>
          <path id="Pfad_12781" data-name="Pfad 12781" d="M707.715,83.629h1.045v5.879h-1.045V87.315h-3.307v-.95l2.089-5h1.1l-2.036,4.919h2.154Z" transform="translate(-457.792 -52.88)"/>
          <path id="Pfad_12782" data-name="Pfad 12782" d="M722.456,84.465a2.043,2.043,0,0,1,2.155,2.171v.678a2.227,2.227,0,1,1-4.449-.034H721.2a1.195,1.195,0,1,0,2.381.034v-.565a1.143,1.143,0,0,0-1.239-1.255h-1.875v-.86l.313-3.268h3.533V82.4h-2.575l-.2,2.069Z" transform="translate(-468.03 -52.88)"/>
          <path id="Pfad_12783" data-name="Pfad 12783" d="M672.881,123.5v-1.289c0-1.425.765-2.035,1.917-2.827.873-.6,1.422-1.04,1.422-1.933a1.067,1.067,0,0,0-1.12-1.176c-.711,0-1.164.373-1.2,1.312H672.87a2.147,2.147,0,0,1,2.208-2.34,2.078,2.078,0,0,1,2.187,2.182c0,1.334-.7,1.934-1.907,2.8-1,.712-1.443,1.051-1.443,1.911v.328h3.361V123.5Z" transform="translate(-437.295 -74.897)"/>
          <path id="Pfad_12784" data-name="Pfad 12784" d="M688.963,121.361v-3.878a2.1,2.1,0,1,1,4.19,0v3.89a2.068,2.068,0,0,1-2.122,2.239,2.042,2.042,0,0,1-2.068-2.25m3.156-.012v-3.844c0-.837-.431-1.233-1.056-1.233s-1.056.408-1.056,1.233v3.844c0,.837.42,1.232,1.056,1.232s1.056-.4,1.056-1.232" transform="translate(-447.754 -74.897)"/>
          <path id="Pfad_12785" data-name="Pfad 12785" d="M704.265,123.5v-1.289c0-1.425.765-2.035,1.917-2.827.873-.6,1.422-1.04,1.422-1.933a1.067,1.067,0,0,0-1.12-1.176c-.711,0-1.164.373-1.2,1.312h-1.034a2.147,2.147,0,0,1,2.208-2.34,2.078,2.078,0,0,1,2.187,2.182c0,1.334-.7,1.934-1.907,2.8-1,.712-1.443,1.051-1.443,1.911v.328h3.361V123.5Z" transform="translate(-457.692 -74.897)"/>
          <path id="Pfad_12786" data-name="Pfad 12786" d="M722.456,118.664a2.044,2.044,0,0,1,2.155,2.171v.678a2.227,2.227,0,1,1-4.449-.034H721.2a1.195,1.195,0,1,0,2.381.034v-.565a1.144,1.144,0,0,0-1.239-1.255h-1.875v-.86l.313-3.268h3.533v1.029h-2.575l-.2,2.069Z" transform="translate(-468.03 -75.106)"/>
        </g>
      </g>
    </g>
  </g>
</svg>
